<?xml version="1.0" encoding="UTF-8" standalone="no"?>
<!DOCTYPE svg PUBLIC "-//W3C//DTD SVG 1.1//EN" "http://www.w3.org/Graphics/SVG/1.1/DTD/svg11.dtd">
<!-- Generated by Microsoft Visio, SVG Export 0001.svg sample01 -->
<svg xmlns="http://www.w3.org/2000/svg" xmlns:xlink="http://www.w3.org/1999/xlink" xmlns:ev="http://www.w3.org/2001/xml-events"
		xmlns:v="http://schemas.microsoft.com/visio/2003/SVGExtensions/" width="34.0787in" height="16.5354in"
		viewBox="0 0 2453.67 1190.55" xml:space="preserve" color-interpolation-filters="sRGB" class="st24">
	<v:documentProperties v:langID="2057" v:metric="true" v:viewMarkup="false">
		<v:userDefs>
			<v:ud v:nameU="msvNoAutoConnect" v:val="VT0(1):26"/>
		</v:userDefs>
	</v:documentProperties>

	<style type="text/css">
	<![CDATA[
		.st1 {fill:none;stroke:#ff0000;stroke-linecap:round;stroke-linejoin:round;stroke-width:0.75}
		.st2 {fill:#ff0000;font-family:Calibri;font-size:1.00001em}
		.st3 {fill:#c81e1e;stroke:none;stroke-linecap:butt;stroke-width:0.999898}
		.st4 {fill:#f44335;stroke:none;stroke-linecap:butt;stroke-width:0.999898}
		.st5 {fill:#cfd8dc;stroke:none;stroke-linecap:butt;stroke-width:0.999898}
		.st6 {fill:#f5f5f5;stroke:none;stroke-linecap:butt;stroke-width:0.999898}
		.st7 {fill:#37474f;stroke:none;stroke-linecap:butt;stroke-width:0.999898}
		.st8 {fill:#000000;stroke:none;stroke-linecap:butt;stroke-width:0.999898}
		.st9 {fill:none;stroke:none;stroke-linecap:round;stroke-linejoin:round;stroke-width:0.75}
		.st10 {fill:#e40520;font-family:Calibri;font-size:1.00001em}
		.st11 {font-size:1em}
		.st12 {fill:#ffffff;stroke:none;stroke-linecap:round;stroke-linejoin:round;stroke-width:0.75}
		.st13 {fill:#1e3773;stroke:none;stroke-linecap:butt;stroke-width:1.19531}
		.st14 {fill:#002060;font-family:Calibri;font-size:1.33333em}
		.st15 {fill:#002060;stroke:none;stroke-linecap:butt;stroke-width:0.75}
		.st16 {fill:#1e3773;stroke:none;stroke-linecap:butt;stroke-width:0.75}
		.st17 {fill:#1e3773;stroke:none;stroke-linecap:butt;stroke-width:6}
		.st18 {fill:#ffffff;stroke:#1e3773;stroke-linecap:round;stroke-linejoin:round;stroke-width:0.24}
		.st19 {fill:#ffffff;stroke:#e40520;stroke-linecap:round;stroke-linejoin:round;stroke-width:0.75}
		.st20 {fill:#e40520;stroke:none;stroke-linecap:round;stroke-linejoin:round;stroke-width:0.75}
		.st21 {fill:#ffffff;font-family:Calibri;font-size:1.33333em}
		.st22 {marker-end:url(#mrkr4-303);stroke:#1e3773;stroke-linecap:round;stroke-linejoin:round;stroke-width:0.75}
		.st23 {fill:#1e3773;fill-opacity:1;stroke:#1e3773;stroke-opacity:1;stroke-width:0.22935779816514}
		.st24 {fill:none;fill-rule:evenodd;font-size:12px;overflow:visible;stroke-linecap:square;stroke-miterlimit:3}
	]]>
	</style>

	<defs id="Markers">
		<g id="lend4">
			<path d="M 2 1 L 0 0 L 2 -1 L 2 1 " style="stroke:none"/>
		</g>
		<marker id="mrkr4-303" class="st23" v:arrowType="4" v:arrowSize="2" v:setback="8.72" refX="-8.72" orient="auto"
				markerUnits="strokeWidth" overflow="visible">
			<use xlink:href="#lend4" transform="scale(-4.36,-4.36) "/>
		</marker>
	</defs>
	<g v:mID="0" v:index="1" v:groupContext="foregroundPage">
		<title>0001</title>
		<v:pageProperties v:drawingScale="0.0393701" v:pageScale="0.0393701" v:drawingUnits="24" v:shadowOffsetX="8.50394"
				v:shadowOffsetY="-8.50394"/>
		<v:layer v:name="displays" v:index="0" v:print="false" v:snap="false" v:glue="false"/>
		<v:layer v:name="Connector" v:index="1"/>
		<g id="shape1-1" v:mID="1" v:groupContext="shape" v:layerMember="0" transform="translate(4.47642E-013,-619.778)">
			<title>Sheet.1</title>
			<desc>DisplayM</desc>
			<v:custProps>
				<v:cp v:nameU="display" v:lbl="activeShape" v:type="0" v:langID="2057" v:val="VT4(M)"/>
			</v:custProps>
			<v:textBlock v:margins="rect(4,4,4,4)" v:tabSpace="42.5197" v:verticalAlign="0"/>
			<v:textRect cx="420.945" cy="905.165" width="841.89" height="570.773"/>
			<rect x="0" y="619.778" width="841.89" height="570.773" class="st1"/>
			<text x="4" y="634.58" class="st2" v:langID="2057"><v:paragraph/><v:tabList/>DisplayM</text>		</g>
		<g id="shape2-4" v:mID="2" v:groupContext="shape" v:layerMember="0" transform="translate(-216.85,-619.778)">
			<title>Sheet.2</title>
			<desc>DisplayL</desc>
			<v:custProps>
				<v:cp v:nameU="display" v:lbl="activeShape" v:type="0" v:langID="2057" v:val="VT4(L)"/>
			</v:custProps>
			<v:textBlock v:margins="rect(4,4,4,4)" v:tabSpace="42.5197" v:verticalAlign="0"/>
			<v:textRect cx="637.795" cy="905.165" width="1275.6" height="570.773"/>
			<rect x="0" y="619.778" width="1275.59" height="570.773" class="st1"/>
			<text x="4" y="634.58" class="st2" v:langID="2057"><v:paragraph/><v:tabList/>DisplayL</text>		</g>
		<g id="shape3-7" v:mID="3" v:groupContext="shape" v:layerMember="0" transform="translate(1117.24,-619.778)">
			<title>Sheet.3</title>
			<desc>DisplayS</desc>
			<v:custProps>
				<v:cp v:nameU="display" v:lbl="activeShape" v:type="0" v:langID="2057" v:val="VT4(S)"/>
			</v:custProps>
			<v:textBlock v:margins="rect(4,4,4,4)" v:tabSpace="42.5197" v:verticalAlign="0"/>
			<v:textRect cx="226.772" cy="905.165" width="453.55" height="570.773"/>
			<rect x="0" y="619.778" width="453.543" height="570.773" class="st1"/>
			<text x="4" y="634.58" class="st2" v:langID="2057"><v:paragraph/><v:tabList/>DisplayS</text>		</g>
		<g id="shape4-10" v:mID="4" v:groupContext="shape" v:layerMember="0" transform="translate(1629.92,-963.78)">
			<title>Sheet.4</title>
			<desc>DisplayT</desc>
			<v:custProps>
				<v:cp v:nameU="display" v:lbl="activeShape" v:type="0" v:langID="2057" v:val="VT4(T)"/>
			</v:custProps>
			<v:textBlock v:margins="rect(4,4,4,4)" v:tabSpace="42.5197" v:verticalAlign="0"/>
			<v:textRect cx="113.386" cy="1077.17" width="226.78" height="226.772"/>
			<rect x="0" y="963.78" width="226.772" height="226.772" class="st1"/>
			<text x="4" y="978.58" class="st2" v:langID="2057"><v:paragraph/><v:tabList/>DisplayT</text>		</g>
		<g id="group6-13" transform="translate(1700.78,-1062.99)" v:mID="6" v:groupContext="group">
			<title>Sheet.6</title>
			<g id="shape7-14" v:mID="7" v:groupContext="shape" transform="translate(1.47905,-1.41407)">
				<title>Sheet.7</title>
				<path d="M75.53 1190.55 L6.56 1190.55 C4.3 1190.52 2.23 1189.3 1.11 1187.33 C0 1185.37 0.01 1182.96 1.15 1181.01
							 L35.63 1120.63 C36.01 1119.96 36.51 1119.37 37.11 1118.89 C38.52 1117.72 40.39 1117.24 42.19 1117.57
							 C44 1117.91 45.56 1119.03 46.46 1120.63 L80.94 1181.01 C82.08 1182.96 82.09 1185.37 80.98 1187.33 C79.86
							 1189.3 77.79 1190.52 75.53 1190.55 Z" class="st3"/>
			</g>
			<g id="shape8-16" v:mID="8" v:groupContext="shape" transform="translate(1.47905,-1.41407)">
				<title>Sheet.8</title>
				<path d="M75.24 1190.55 L6.56 1190.55 C4.3 1190.52 2.23 1189.3 1.11 1187.33 C0 1185.37 0.01 1182.96 1.15 1181.01
							 L35.63 1120.63 C36.01 1119.96 36.51 1119.37 37.11 1118.89 C39.25 1118.97 41.2 1120.17 42.24 1122.04
							 L76.73 1182.41 C78.29 1185.13 77.66 1188.57 75.24 1190.55 Z" class="st4"/>
			</g>
			<g id="shape9-18" v:mID="9" v:groupContext="shape" transform="translate(7.34636,-7.02855)">
				<title>Sheet.9</title>
				<path d="M70.2 1190.22 C70.1 1190.42 69.89 1190.55 69.67 1190.54 L0.69 1190.54 C0.46 1190.55 0.25 1190.42 0.15 1190.22
							 C0 1189.98 0 1189.66 0.15 1189.42 L33.07 1131.8 L34.64 1129.04 C34.74 1128.84 34.95 1128.71 35.18 1128.71
							 C35.41 1128.71 35.61 1128.84 35.71 1129.04 L70.2 1189.42 C70.35 1189.66 70.35 1189.98 70.2 1190.22 Z"
						class="st5"/>
			</g>
			<g id="shape10-20" v:mID="10" v:groupContext="shape" transform="translate(7.34636,-7.02855)">
				<title>Sheet.10</title>
				<path d="M65.98 1190.22 C65.88 1190.42 65.68 1190.55 65.45 1190.54 L0.69 1190.54 C0.46 1190.55 0.25 1190.42 0.15
							 1190.22 C0 1189.98 0 1189.66 0.15 1189.42 L33.07 1131.8 L65.98 1189.42 C66.14 1189.66 66.14 1189.98
							 65.98 1190.22 Z" class="st6"/>
			</g>
			<g id="shape11-22" v:mID="11" v:groupContext="shape" transform="translate(27.0642,-12.6572)">
				<title>Sheet.11</title>
				<path d="M4.22 1190.55 L1.41 1190.55 C0.63 1190.55 0 1189.92 0 1189.15 L0 1177.9 C0 1177.24 0.23 1176.61 0.65 1176.1
							 L7.03 1168.45 L7.03 1159.63 C7.03 1158.86 7.66 1158.23 8.43 1158.23 L11.24 1158.23 C12.02 1158.23 12.65
							 1158.86 12.65 1159.63 L12.65 1169.47 C12.65 1170.13 12.42 1170.76 12 1171.27 L5.62 1178.92 L5.62 1189.15
							 C5.62 1189.92 4.99 1190.55 4.22 1190.55 Z" class="st7"/>
			</g>
			<g id="shape12-24" v:mID="12" v:groupContext="shape" transform="translate(45.3346,-12.6572)">
				<title>Sheet.12</title>
				<path d="M7.03 1189.15 C7.03 1189.92 7.66 1190.55 8.43 1190.55 L11.24 1190.55 C12.02 1190.55 12.65 1189.92 12.65
							 1189.15 L12.65 1177.9 C12.65 1177.24 12.42 1176.61 12 1176.1 L8.81 1172.28 L5.62 1168.45 L5.62 1159.63
							 C5.62 1158.86 4.99 1158.23 4.22 1158.23 L1.41 1158.23 C0.63 1158.23 0 1158.86 0 1159.63 L0 1169.47 C0
							 1170.13 0.23 1170.76 0.65 1171.27 L3.84 1175.09 L7.03 1178.92 L7.03 1189.15 Z" class="st7"/>
			</g>
			<g id="shape13-26" v:mID="13" v:groupContext="shape">
				<title>Sheet.13</title>
				<path d="M77.02 1190.54 L8.03 1190.54 C5.3 1190.55 2.78 1189.09 1.43 1186.72 C0.01 1184.31 0 1181.32 1.4 1178.9 L35.89
							 1118.52 C37.24 1116.13 39.78 1114.65 42.52 1114.65 C45.27 1114.65 47.81 1116.13 49.15 1118.52 L83.65
							 1178.9 C85.05 1181.32 85.04 1184.31 83.62 1186.72 C82.27 1189.09 79.75 1190.55 77.02 1190.54 ZM42.52
							 1117.46 C40.78 1117.46 39.18 1118.4 38.33 1119.92 L3.84 1180.3 C2.94 1181.85 2.95 1183.76 3.86 1185.31
							 C4.71 1186.81 6.3 1187.73 8.03 1187.73 L77.02 1187.73 C78.74 1187.73 80.34 1186.81 81.19 1185.31 C82.1
							 1183.76 82.1 1181.85 81.21 1180.3 L46.71 1119.92 C45.87 1118.4 44.26 1117.46 42.52 1117.46 Z"
						class="st8"/>
			</g>
			<g id="shape14-28" v:mID="14" v:groupContext="shape" transform="translate(5.87953,-5.62477)">
				<title>Sheet.14</title>
				<path d="M71.14 1190.55 L2.15 1190.55 C1.43 1190.55 0.76 1190.16 0.41 1189.52 C0 1188.84 0 1187.99 0.4 1187.31 L34.89
							 1126.94 C35.24 1126.29 35.91 1125.89 36.64 1125.9 C37.38 1125.89 38.05 1126.3 38.4 1126.94 L72.89 1187.32
							 C73.29 1188 73.28 1188.84 72.88 1189.52 C72.53 1190.16 71.86 1190.55 71.14 1190.55 ZM2.15 1187.73 L2.15
							 1189.14 L2.15 1187.73 L2.15 1187.73 ZM3.4 1187.73 L69.89 1187.73 L36.64 1129.54 L3.4 1187.73 Z"
						class="st8"/>
			</g>
			<g id="shape15-30" v:mID="15" v:groupContext="shape" transform="translate(25.6585,-11.2521)">
				<title>Sheet.15</title>
				<path d="M7.03 1190.55 L1.41 1190.55 C0.63 1190.55 0 1189.92 0 1189.15 L0 1176.5 C0 1175.51 0.35 1174.56 0.98 1173.8
							 L7.03 1166.54 L7.03 1156.82 C7.03 1156.05 7.66 1155.42 8.43 1155.42 L14.05 1155.42 C14.83 1155.42 15.46
							 1156.05 15.46 1156.82 L15.46 1168.06 C15.46 1169.05 15.11 1170.01 14.48 1170.76 L8.43 1178.02 L8.43
							 1189.15 C8.43 1189.92 7.8 1190.55 7.03 1190.55 ZM2.81 1187.74 L5.62 1187.74 L5.62 1177.52 C5.62 1177.19
							 5.74 1176.87 5.95 1176.62 L12.32 1168.96 C12.53 1168.71 12.65 1168.39 12.65 1168.06 L12.65 1158.23 L9.84
							 1158.23 L9.84 1167.05 C9.84 1167.38 9.72 1167.69 9.51 1167.95 L3.14 1175.6 C2.93 1175.85 2.81 1176.17
							 2.81 1176.5 L2.81 1187.74 Z" class="st8"/>
			</g>
			<g id="shape16-32" v:mID="16" v:groupContext="shape" transform="translate(43.9289,-11.2521)">
				<title>Sheet.16</title>
				<path d="M14.05 1190.55 L8.43 1190.55 C7.66 1190.55 7.03 1189.92 7.03 1189.15 L7.03 1178.02 L0.98 1170.76 C0.35 1170.01
							 0 1169.05 0 1168.06 L0 1156.82 C0 1156.05 0.63 1155.42 1.41 1155.42 L7.03 1155.42 C7.8 1155.42 8.43
							 1156.05 8.43 1156.82 L8.43 1166.54 L14.48 1173.8 C15.11 1174.56 15.46 1175.51 15.46 1176.5 L15.46 1189.15
							 C15.46 1189.92 14.83 1190.55 14.05 1190.55 ZM9.84 1187.74 L12.65 1187.74 L12.65 1176.5 C12.65 1176.17
							 12.53 1175.85 12.32 1175.6 L5.95 1167.95 C5.74 1167.69 5.62 1167.38 5.62 1167.05 L5.62 1158.23 L2.81
							 1158.23 L2.81 1168.06 C2.81 1168.39 2.93 1168.71 3.14 1168.96 L9.51 1176.62 C9.72 1176.87 9.84 1177.19
							 9.84 1177.52 L9.84 1187.74 Z" class="st8"/>
			</g>
		</g>
		<g id="shape17-34" v:mID="17" v:groupContext="shape" transform="translate(1646.93,-1001.2)">
			<title>Sheet.17</title>
			<desc>Sorry, your screen is not wide enough to fit this image.</desc>
			<v:textBlock v:margins="rect(4,4,4,4)" v:tabSpace="42.5197"/>
			<v:textRect cx="95.5276" cy="1170.28" width="191.06" height="40.5354"/>
			<rect x="0" y="1150.02" width="191.055" height="40.5354" class="st9"/>
			<text x="23.35" y="1166.68" class="st10" v:langID="2057"><v:paragraph v:horizAlign="1"/><v:tabList/>Sorry, your screen is not wide <tspan
						x="36.03" dy="1.2em" class="st11">enough to fit this image</tspan>.</text>		</g>
		<g id="group40-38" transform="translate(77.3412,-841.687)" v:mID="40" v:groupContext="group">
			<v:custProps>
				<v:cp v:nameU="popuplink" v:lbl="active shape" v:type="0" v:langID="2057" v:val="VT4(01)"/>
			</v:custProps>
			<title>Sheet.40</title>
			<g id="shape39-39" v:mID="39" v:groupContext="shape">
				<title>Sheet.39</title>
				<rect x="0" y="1048.82" width="107.717" height="141.732" class="st12"/>
			</g>
			<g id="group30-41" transform="translate(10.5204,-45.1623)" v:mID="30" v:groupContext="group">
				<title>Sheet.30</title>
				<g id="shape31-42" v:mID="31" v:groupContext="shape" transform="translate(41.1529,-34.9709)">
					<title>Sheet.31</title>
					<path d="M17.16 1188.09 L5.63 1181.01 C5.49 1180.92 5.33 1180.86 5.17 1180.84 L1.56 1180.2 C0.89 1180.08 0.24
								 1180.54 0.12 1181.21 C0 1181.88 0.46 1182.53 1.13 1182.65 L4.53 1183.25 L15.86 1190.21 C16.41 1190.55
								 17.17 1190.39 17.54 1189.85 C17.93 1189.28 17.75 1188.46 17.16 1188.09 Z" class="st13"/>
				</g>
				<g id="shape32-44" v:mID="32" v:groupContext="shape">
					<title>Sheet.32</title>
					<path d="M84.58 1153.52 C84.11 1153.02 83.32 1152.99 82.82 1153.46 L77.78 1158.17 L54.67 1135.37 L84.52 1107.4
								 C85.02 1106.93 85.05 1106.15 84.58 1105.64 C84.11 1105.14 83.32 1105.12 82.82 1105.59 L52.03 1134.44
								 C51.52 1134.92 51.51 1135.75 52 1136.24 L54.05 1138.25 L53.4 1138.83 L39.73 1137.65 C39.52 1137.64
								 39.3 1137.67 39.11 1137.76 L28.29 1142.69 C28.26 1142.68 28.23 1142.67 28.19 1142.67 L21.97 1141.57
								 L22.47 1140.28 C22.72 1139.65 22.41 1138.93 21.77 1138.67 L1.87 1130.71 C1.23 1130.46 0.51 1130.77
								 0.26 1131.41 C0 1132.04 0.31 1132.77 0.95 1133.02 L19.7 1140.53 L8.65 1168.77 L1.83 1166.35 C1.18
								 1166.12 0.47 1166.46 0.24 1167.11 C0.01 1167.76 0.35 1168.47 0.99 1168.7 L8.96 1171.52 C9.58 1171.74
								 10.29 1171.42 10.53 1170.8 L12.38 1166.08 L17.22 1168.79 L16.68 1169.66 C15.17 1172.11 15.93 1175.33
								 18.38 1176.84 C19.68 1177.64 21.29 1177.83 22.74 1177.37 C22.97 1178.87 23.86 1180.22 25.16 1181.02
								 C26.46 1181.82 28.07 1182.01 29.51 1181.55 C29.75 1183.06 30.63 1184.4 31.93 1185.2 C33.23 1186.01
								 34.84 1186.2 36.29 1185.73 C36.52 1187.24 37.41 1188.58 38.71 1189.38 C40.6 1190.55 43.1 1190.38
								 44.81 1188.95 C45.23 1188.59 45.6 1188.16 45.9 1187.68 L46.75 1186.31 L47.45 1186.74 C49.34 1187.9
								 51.84 1187.72 53.54 1186.29 C53.97 1185.93 54.34 1185.5 54.63 1185.02 C55.21 1184.07 55.46 1183.01
								 55.39 1181.97 C55.79 1182.07 56.19 1182.12 56.6 1182.12 C58.41 1182.12 60.11 1181.17 61.06 1179.63
								 C61.63 1178.7 61.89 1177.64 61.82 1176.58 C62.22 1176.67 62.62 1176.72 63.03 1176.72 C64.83 1176.72
								 66.54 1175.77 67.49 1174.23 C68.06 1173.31 68.32 1172.25 68.25 1171.18 C68.65 1171.28 69.05 1171.33
								 69.46 1171.33 C71.21 1171.33 72.93 1170.44 73.92 1168.84 C75.43 1166.39 74.66 1163.16 72.2 1161.65
								 L71.35 1161.13 L74.21 1158.14 L76.88 1160.78 C77.35 1161.25 78.12 1161.26 78.6 1160.81 L84.52 1155.28
								 C85.02 1154.81 85.05 1154.02 84.58 1153.52 ZM23.46 1173.84 C22.66 1175.12 20.98 1175.52 19.69 1174.73
								 C18.41 1173.94 18.01 1172.25 18.8 1170.96 L25.77 1159.67 C26.54 1158.41 28.21 1158 29.49 1158.75
								 C30.8 1159.53 31.17 1161.34 30.38 1162.62 L23.46 1173.84 ZM30.23 1178.02 C29.44 1179.3 27.75 1179.7
								 26.47 1178.91 C25.2 1178.12 24.79 1176.41 25.57 1175.14 L31.15 1166.11 C31.92 1164.85 33.59 1164.44
								 34.87 1165.19 C36.19 1165.97 36.55 1167.78 35.76 1169.06 L30.23 1178.02 ZM37.01 1182.2 C36.62 1182.82
								 36.02 1183.25 35.31 1183.42 C34.6 1183.59 33.86 1183.47 33.24 1183.09 C31.97 1182.3 31.56 1180.59
								 32.35 1179.32 L36.53 1172.55 C37.31 1171.29 38.98 1170.87 40.25 1171.63 C41.57 1172.41 41.93 1174.21
								 41.14 1175.5 L37.01 1182.2 ZM46.52 1181.94 L43.78 1186.38 C43 1187.64 41.29 1188.05 40.02 1187.27
								 C38.75 1186.49 38.34 1184.77 39.12 1183.5 L41.91 1178.99 C42.69 1177.73 44.36 1177.31 45.63 1178.07
								 C46.95 1178.85 47.31 1180.65 46.52 1181.94 ZM69.18 1159.8 L63.01 1156.01 C62.44 1155.66 61.65 1155.85
								 61.3 1156.42 C60.95 1156.99 61.14 1157.78 61.71 1158.13 L70.9 1163.77 C72.18 1164.56 72.59 1166.25
								 71.8 1167.54 C71.01 1168.82 69.32 1169.23 68.03 1168.44 L58.18 1162.38 C57.6 1162.02 56.83 1162.21
								 56.47 1162.79 C56.11 1163.38 56.29 1164.14 56.88 1164.5 L64.47 1169.17 C65.74 1169.95 66.15 1171.66
								 65.37 1172.93 C64.59 1174.2 62.88 1174.61 61.61 1173.83 L54.73 1169.6 C54.14 1169.24 53.37 1169.43
								 53.01 1170.01 C52.66 1170.6 52.84 1171.36 53.42 1171.72 L58.04 1174.56 C59.31 1175.34 59.72 1177.05
								 58.94 1178.32 C58.16 1179.59 56.45 1180 55.18 1179.22 C55.18 1179.22 51.11 1176.73 51.08 1176.71
								 C50.51 1176.44 49.81 1176.63 49.48 1177.18 C49.12 1177.77 49.3 1178.53 49.89 1178.89 L51.61 1179.95
								 C52.9 1180.74 53.3 1182.43 52.51 1183.72 C51.73 1184.99 50.02 1185.4 48.75 1184.62 L48.05 1184.19
								 L48.64 1183.24 C49.39 1182.03 49.62 1180.54 49.28 1179.15 C48.94 1177.77 48.09 1176.63 46.9 1175.92
								 C45.96 1175.37 44.92 1175.15 43.91 1175.22 C44.1 1174.4 44.1 1173.54 43.89 1172.71 C43.56 1171.34
								 42.71 1170.19 41.52 1169.49 C40.58 1168.93 39.54 1168.71 38.53 1168.78 C39.04 1166.58 38.09 1164.21
								 36.13 1163.05 C35.2 1162.5 34.16 1162.27 33.14 1162.34 C33.66 1160.14 32.71 1157.77 30.75 1156.61
								 C28.32 1155.17 25.13 1155.96 23.65 1158.36 L18.52 1166.67 L13.29 1163.74 L21.04 1143.93 L25.26 1144.68
								 C24.06 1146.17 23.72 1148.27 24.57 1150.12 C25.44 1152.05 27.35 1153.18 29.33 1153.18 C30.06 1153.18
								 30.79 1153.03 31.49 1152.71 L38.77 1149.4 C39.39 1149.11 39.67 1148.36 39.39 1147.75 C39.11 1147.13
								 38.36 1146.85 37.74 1147.13 L30.46 1150.45 C29.09 1151.07 27.46 1150.47 26.83 1149.09 C26.21 1147.72
								 26.82 1146.09 28.19 1145.47 L39.85 1140.16 L53.71 1141.35 C53.75 1141.36 53.78 1141.36 53.82 1141.36
								 C54.12 1141.36 54.41 1141.25 54.64 1141.05 L55.82 1140 L72.44 1156.4 L69.18 1159.8 Z" class="st13"/>
				</g>
			</g>
			<g id="shape37-46" v:mID="37" v:groupContext="shape" transform="translate(10.5287,-3.03712)">
				<title>Sheet.37</title>
				<desc>Framework Agreement</desc>
				<v:textBlock v:margins="rect(4,4,4,4)" v:tabSpace="42.5197"/>
				<v:textRect cx="42.5197" cy="1169.29" width="85.04" height="42.5197"/>
				<rect x="0" y="1148.03" width="85.0394" height="42.5197" class="st9"/>
				<text x="5.49" y="1164.49" class="st14" v:langID="2057"><v:paragraph v:horizAlign="1"/><v:tabList/>Framework <tspan
							x="6.12" dy="1.2em" class="st11">Agreement</tspan></text>			</g>
		</g>
		<g id="group42-50" transform="translate(629.291,-841.687)" v:mID="42" v:groupContext="group">
			<v:custProps>
				<v:cp v:nameU="pagelink" v:lbl="active shape" v:type="0" v:langID="2057" v:val="VT4(0002.svg)"/>
			</v:custProps>
			<title>Sheet.42</title>
			<g id="shape41-51" v:mID="41" v:groupContext="shape">
				<title>Sheet.41</title>
				<rect x="0" y="1048.82" width="107.717" height="141.732" class="st12"/>
			</g>
			<g id="group33-53" transform="translate(11.3344,-51.6793)" v:mID="33" v:groupContext="group">
				<title>Sheet.33</title>
				<g id="group34-54" v:mID="34" v:groupContext="group">
					<title>Sheet.34</title>
					<g id="shape35-55" v:mID="35" v:groupContext="shape" transform="translate(66.5996,-44.7229)">
						<title>Sheet.35</title>
						<path d="M0.44 1189.94 C0.88 1190.48 1.68 1190.55 2.21 1190.11 L4.87 1187.92 C5.21 1188.07 5.6 1188.16 6
									 1188.16 C7.55 1188.16 8.8 1186.9 8.8 1185.35 C8.8 1184.26 8.17 1183.31 7.25 1182.85 L7.25 1180.5
									 C7.25 1179.81 6.69 1179.25 6 1179.25 C5.31 1179.25 4.75 1179.81 4.75 1180.5 L4.75 1182.85 C3.83
									 1183.31 3.2 1184.26 3.2 1185.35 C3.2 1185.57 3.22 1185.78 3.27 1185.98 L0.61 1188.18 C0.08 1188.62
									 0 1189.41 0.44 1189.94 Z" class="st15"/>
					</g>
					<g id="shape36-57" v:mID="36" v:groupContext="shape">
						<title>Sheet.36</title>
						<path d="M82.79 1180.97 L81 1180.97 L81 1177.88 C81 1176.63 79.99 1175.62 78.74 1175.62 L78.02 1175.62 L78.02
									 1172.77 C78.02 1171.52 77 1170.51 75.76 1170.51 L73.85 1170.51 L73.85 1153.01 C80.13 1152.38
									 85.05 1147.07 85.05 1140.63 C85.05 1139.92 84.99 1139.21 84.87 1138.52 C84.75 1137.84 84.1 1137.38
									 83.42 1137.5 C82.74 1137.61 82.28 1138.26 82.4 1138.94 C82.49 1139.5 82.54 1140.06 82.54 1140.63
									 C82.54 1146.11 78.08 1150.57 72.6 1150.57 C67.12 1150.57 62.66 1146.11 62.66 1140.63 C62.66
									 1135.15 67.12 1130.69 72.6 1130.69 C75.37 1130.69 77.94 1131.8 79.84 1133.82 C80.32 1134.33
									 81.11 1134.35 81.61 1133.88 C82.12 1133.4 82.14 1132.61 81.67 1132.1 C79.32 1129.61 76.02 1128.18
									 72.6 1128.18 C65.74 1128.18 60.15 1133.77 60.15 1140.63 C60.15 1147.07 65.07 1152.38 71.35 1153.01
									 L71.35 1170.51 L69.44 1170.51 C68.2 1170.51 67.18 1171.52 67.18 1172.77 L67.18 1175.62 L66.46
									 1175.62 C65.21 1175.62 64.2 1176.63 64.2 1177.88 L64.2 1180.97 L59.69 1180.97 C60.67 1179.41
									 61.21 1177.6 61.21 1175.73 C61.21 1173.77 60.63 1171.88 59.53 1170.26 L50.38 1156.79 C48.14
									 1153.5 45.33 1150.71 42.13 1148.54 L42.13 1117.07 C42.13 1114.07 39.69 1111.63 36.7 1111.63
									 L2.26 1111.63 C1.01 1111.63 0 1112.65 0 1113.89 L0 1126.76 C0 1127.45 0.56 1128.02 1.25 1128.02
									 C1.95 1128.02 2.51 1127.45 2.51 1126.76 L2.51 1125.83 C13.03 1126.71 22.02 1133.41 25.88 1143.19
									 C25.47 1143.17 25.06 1143.16 24.64 1143.16 L2.51 1143.16 L2.51 1132.96 C2.51 1132.27 1.95 1131.71
									 1.25 1131.71 C0.56 1131.71 0 1132.27 0 1132.96 L0 1188.29 C0 1189.54 1.01 1190.55 2.26 1190.55
									 L64.96 1190.55 C65.65 1190.55 66.21 1189.99 66.21 1189.3 C66.21 1188.6 65.65 1188.04 64.96 1188.04
									 L2.51 1188.04 L2.51 1183.47 L82.54 1183.47 L82.54 1188.04 L71.06 1188.04 C70.36 1188.04 69.8
									 1188.6 69.8 1189.3 C69.8 1189.99 70.36 1190.55 71.06 1190.55 L82.79 1190.55 C84.04 1190.55 85.05
									 1189.54 85.05 1188.29 L85.05 1183.22 C85.05 1181.98 84.04 1180.97 82.79 1180.97 ZM69.69 1173.02
									 L75.51 1173.02 L75.51 1175.62 L69.69 1175.62 L69.69 1173.02 ZM66.71 1178.13 L78.49 1178.13 L78.49
									 1180.97 L66.71 1180.97 L66.71 1178.13 ZM56.07 1169.62 L50.27 1169.62 C49.08 1169.62 47.96 1169.04
									 47.28 1168.06 L41.3 1159.5 C40.96 1159.02 41.14 1158.55 41.23 1158.38 C41.32 1158.2 41.6 1157.79
									 42.19 1157.79 L48.02 1157.79 C48.12 1157.93 56.07 1169.62 56.07 1169.62 ZM18.62 1129.52 C13.95
									 1125.91 8.39 1123.76 2.51 1123.31 L2.51 1114.14 L36.7 1114.14 C38.31 1114.14 39.62 1115.45 39.62
									 1117.07 L39.62 1147 C36.24 1145.15 32.53 1143.92 28.64 1143.42 C26.71 1137.91 23.26 1133.12
									 18.62 1129.52 ZM27.77 1157.79 C28.64 1157.79 29.35 1158.5 29.35 1159.38 L29.35 1168.04 C29.35
									 1168.91 28.64 1169.62 27.77 1169.62 L16.68 1169.62 L16.68 1157.79 L27.77 1157.79 ZM14.18 1169.62
									 L2.51 1169.62 L2.51 1157.79 L14.18 1157.79 L14.18 1169.62 ZM2.51 1172.13 L27.77 1172.13 C30.02
									 1172.13 31.86 1170.29 31.86 1168.04 L31.86 1159.38 C31.86 1157.12 30.02 1155.28 27.77 1155.28
									 L2.51 1155.28 L2.51 1145.67 L24.64 1145.67 C32.89 1145.67 40.65 1149.21 46.04 1155.28 L42.19
									 1155.28 C40.85 1155.28 39.63 1156.02 39 1157.22 C38.38 1158.41 38.47 1159.84 39.24 1160.94 L45.22
									 1169.5 C46.37 1171.15 48.26 1172.13 50.27 1172.13 L57.75 1172.13 C58.38 1173.23 58.71 1174.46
									 58.71 1175.73 C58.71 1177.7 57.89 1179.61 56.47 1180.97 L2.51 1180.97 L2.51 1172.13 Z"
								class="st15"/>
					</g>
				</g>
			</g>
			<g id="shape38-59" v:mID="38" v:groupContext="shape" transform="translate(4.24783,-10.1237)">
				<title>Sheet.38</title>
				<desc>Completion Certification</desc>
				<v:textBlock v:margins="rect(4,4,4,4)" v:tabSpace="42.5197"/>
				<v:textRect cx="49.6104" cy="1169.29" width="99.23" height="42.5197"/>
				<rect x="0" y="1148.03" width="99.2209" height="42.5197" class="st9"/>
				<text x="11.78" y="1164.49" class="st14" v:langID="2057"><v:paragraph v:horizAlign="1"/><v:tabList/>Completion <tspan
							x="9.63" dy="1.2em" class="st11">Certification</tspan></text>			</g>
		</g>
		<a
				xlink:href="https://isosolutionsinfo.sharepoint.com/:u:/s/MajorProjectIMS/Ef1DXHKB_WhAuE6jvlPCiCYB7s3nDYwGC6Hg5Zh5qmFrdQ?e=3Hf6aj">
			<g id="group92-63" transform="translate(371.334,-949.606)" v:mID="92" v:groupContext="group">
				<title>Sheet.92</title>
				<g id="shape67-64" v:mID="67" v:groupContext="shape">
					<title>Sheet.67</title>
					<rect x="0" y="1048.82" width="107.717" height="141.732" class="st12"/>
				</g>
				<g id="shape71-66" v:mID="71" v:groupContext="shape" transform="translate(4.25611,-3.03712)">
					<title>Sheet.71</title>
					<desc>Governance and support</desc>
					<v:textBlock v:margins="rect(4,4,4,4)" v:tabSpace="42.5197"/>
					<v:textRect cx="46.47" cy="1169.29" width="92.95" height="42.5197"/>
					<rect x="0" y="1148.03" width="92.94" height="42.5197" class="st9"/>
					<text x="7.22" y="1164.49" class="st14" v:langID="2057"><v:paragraph v:horizAlign="1"/><v:tabList/>Governance <tspan
								x="7" dy="1.2em" class="st11">and support</tspan></text>				</g>
				<g id="group44-70" transform="translate(10.5204,-45.1623)" v:mID="44" v:groupContext="group">
					<title>Sheet.44</title>
					<g id="group45-71" v:mID="45" v:groupContext="group">
						<title>XMLID_144_</title>
						<g id="shape46-72" v:mID="46" v:groupContext="shape" transform="translate(27.7173,-47.0303)">
							<title>XMLID_149_</title>
							<path d="M1.67 1183.76 C0.75 1183.76 0 1184.51 0 1185.43 L0 1188.88 C0 1189.8 0.75 1190.55 1.67 1190.55
										 C2.59 1190.55 3.34 1189.8 3.34 1188.88 L3.34 1185.43 C3.34 1184.51 2.59 1183.76 1.67 1183.76
										 Z" class="st16"/>
						</g>
						<g id="shape47-74" v:mID="47" v:groupContext="shape" transform="translate(34.3962,-47.0303)">
							<title>XMLID_666_</title>
							<path d="M1.67 1183.76 C0.75 1183.76 0 1184.51 0 1185.43 L0 1188.88 C0 1189.8 0.75 1190.55 1.67 1190.55
										 C2.59 1190.55 3.34 1189.8 3.34 1188.88 L3.34 1185.43 C3.34 1184.51 2.59 1183.76 1.67 1183.76
										 Z" class="st16"/>
						</g>
						<g id="shape48-76" v:mID="48" v:groupContext="shape" transform="translate(41.0751,-47.0303)">
							<title>XMLID_1082_</title>
							<path d="M1.67 1183.76 C0.75 1183.76 0 1184.51 0 1185.43 L0 1188.88 C0 1189.8 0.75 1190.55 1.67 1190.55
										 C2.59 1190.55 3.34 1189.8 3.34 1188.88 L3.34 1185.43 C3.34 1184.51 2.59 1183.76 1.67 1183.76
										 Z" class="st16"/>
						</g>
						<g id="shape49-78" v:mID="49" v:groupContext="shape" transform="translate(47.754,-47.0303)">
							<title>XMLID_1380_</title>
							<path d="M1.67 1183.76 C0.75 1183.76 0 1184.51 0 1185.43 L0 1188.88 C0 1189.8 0.75 1190.55 1.67 1190.55
										 C2.59 1190.55 3.34 1189.8 3.34 1188.88 L3.34 1185.43 C3.34 1184.51 2.59 1183.76 1.67 1183.76
										 Z" class="st16"/>
						</g>
						<g id="shape50-80" v:mID="50" v:groupContext="shape" transform="translate(54.4328,-47.0303)">
							<title>XMLID_1437_</title>
							<path d="M1.67 1183.76 C0.75 1183.76 0 1184.51 0 1185.43 L0 1188.88 C0 1189.8 0.75 1190.55 1.67 1190.55
										 C2.59 1190.55 3.34 1189.8 3.34 1188.88 L3.34 1185.43 C3.34 1184.51 2.59 1183.76 1.67 1183.76
										 Z" class="st16"/>
						</g>
						<g id="shape51-82" v:mID="51" v:groupContext="shape" transform="translate(17.699,-6.62328)">
							<title>XMLID_1438_</title>
							<path d="M1.67 1187.21 C1.23 1187.21 0.8 1187.39 0.49 1187.7 C0.18 1188.01 0 1188.44 0 1188.88 C0 1189.32
										 0.18 1189.75 0.49 1190.06 C0.8 1190.37 1.23 1190.55 1.67 1190.55 C2.11 1190.55 2.54 1190.37
										 2.85 1190.06 C3.16 1189.75 3.34 1189.32 3.34 1188.88 C3.34 1188.44 3.16 1188.01 2.85 1187.7
										 C2.54 1187.39 2.11 1187.21 1.67 1187.21 Z" class="st16"/>
						</g>
						<g id="shape52-84" v:mID="52" v:groupContext="shape" transform="translate(17.699,-13.1936)">
							<title>XMLID_1439_</title>
							<path d="M1.67 1179.98 C0.75 1179.98 0 1180.73 0 1181.65 L0 1188.88 C0 1189.8 0.75 1190.55 1.67 1190.55
										 C2.59 1190.55 3.34 1189.8 3.34 1188.88 L3.34 1181.65 C3.34 1180.73 2.59 1179.98 1.67 1179.98
										 Z" class="st16"/>
						</g>
						<g id="shape53-86" v:mID="53" v:groupContext="shape" transform="translate(27.0495,-6.62311)">
							<title>XMLID_1455_</title>
							<path d="M1.67 1173.41 C0.75 1173.41 0 1174.16 0 1175.08 L0 1188.88 C0 1189.8 0.75 1190.55 1.67 1190.55
										 C2.59 1190.55 3.34 1189.8 3.34 1188.88 L3.34 1175.08 C3.34 1174.16 2.59 1173.41 1.67 1173.41
										 Z" class="st16"/>
						</g>
						<g id="shape54-88" v:mID="54" v:groupContext="shape" transform="translate(36.3999,-6.62311)">
							<title>XMLID_1456_</title>
							<path d="M1.67 1173.41 C0.75 1173.41 0 1174.16 0 1175.08 L0 1188.88 C0 1189.8 0.75 1190.55 1.67 1190.55
										 C2.59 1190.55 3.34 1189.8 3.34 1188.88 L3.34 1175.08 C3.34 1174.16 2.59 1173.41 1.67 1173.41
										 Z" class="st16"/>
						</g>
						<g id="shape55-90" v:mID="55" v:groupContext="shape" transform="translate(45.7503,-6.62311)">
							<title>XMLID_1471_</title>
							<path d="M1.67 1173.41 C0.75 1173.41 0 1174.16 0 1175.08 L0 1188.88 C0 1189.8 0.75 1190.55 1.67 1190.55
										 C2.59 1190.55 3.34 1189.8 3.34 1188.88 L3.34 1175.08 C3.34 1174.16 2.59 1173.41 1.67 1173.41
										 Z" class="st16"/>
						</g>
						<g id="shape56-92" v:mID="56" v:groupContext="shape" transform="translate(55.1007,-6.62311)">
							<title>XMLID_1480_</title>
							<path d="M1.67 1173.41 C0.75 1173.41 0 1174.16 0 1175.08 L0 1188.88 C0 1189.8 0.75 1190.55 1.67 1190.55
										 C2.59 1190.55 3.34 1189.8 3.34 1188.88 L3.34 1175.08 C3.34 1174.16 2.59 1173.41 1.67 1173.41
										 Z" class="st16"/>
						</g>
						<g id="shape57-94" v:mID="57" v:groupContext="shape" transform="translate(64.4512,-20.4268)">
							<title>XMLID_1584_</title>
							<path d="M1.67 1187.21 C1.23 1187.21 0.8 1187.39 0.49 1187.7 C0.18 1188.01 0 1188.44 0 1188.88 C0 1189.32
										 0.18 1189.75 0.49 1190.06 C0.8 1190.37 1.23 1190.55 1.67 1190.55 C2.11 1190.55 2.54 1190.37
										 2.85 1190.06 C3.16 1189.75 3.34 1189.32 3.34 1188.88 C3.34 1188.44 3.16 1188.01 2.85 1187.7
										 C2.54 1187.39 2.11 1187.21 1.67 1187.21 Z" class="st16"/>
						</g>
						<g id="shape58-96" v:mID="58" v:groupContext="shape" transform="translate(64.4512,-6.62311)">
							<title>XMLID_1585_</title>
							<path d="M1.67 1180.09 C0.75 1180.09 0 1180.84 0 1181.76 L0 1188.88 C0 1189.8 0.75 1190.55 1.67 1190.55
										 C2.59 1190.55 3.34 1189.8 3.34 1188.88 L3.34 1181.76 C3.34 1180.84 2.59 1180.09 1.67 1180.09
										 Z" class="st16"/>
						</g>
						<g id="shape59-98" v:mID="59" v:groupContext="shape" transform="translate(24.3779,-33.0882)">
							<title>XMLID_1598_</title>
							<path d="M1.67 1183.76 C0.75 1183.76 0 1184.51 0 1185.43 L0 1188.88 C0 1189.8 0.75 1190.55 1.67 1190.55
										 C2.59 1190.55 3.34 1189.8 3.34 1188.88 L3.34 1185.43 C3.34 1184.51 2.59 1183.76 1.67 1183.76
										 Z" class="st16"/>
						</g>
						<g id="shape60-100" v:mID="60" v:groupContext="shape" transform="translate(31.0568,-33.0882)">
							<title>XMLID_1599_</title>
							<path d="M1.67 1183.76 C0.75 1183.76 0 1184.51 0 1185.43 L0 1188.88 C0 1189.8 0.75 1190.55 1.67 1190.55
										 C2.59 1190.55 3.34 1189.8 3.34 1188.88 L3.34 1185.43 C3.34 1184.51 2.59 1183.76 1.67 1183.76
										 Z" class="st16"/>
						</g>
						<g id="shape61-102" v:mID="61" v:groupContext="shape" transform="translate(37.7357,-33.0882)">
							<title>XMLID_1600_</title>
							<path d="M1.67 1183.76 C0.75 1183.76 0 1184.51 0 1185.43 L0 1188.88 C0 1189.8 0.75 1190.55 1.67 1190.55
										 C2.59 1190.55 3.34 1189.8 3.34 1188.88 L3.34 1185.43 C3.34 1184.51 2.59 1183.76 1.67 1183.76
										 Z" class="st16"/>
						</g>
						<g id="shape62-104" v:mID="62" v:groupContext="shape" transform="translate(44.4145,-33.0882)">
							<title>XMLID_1601_</title>
							<path d="M1.67 1183.76 C0.75 1183.76 0 1184.51 0 1185.43 L0 1188.88 C0 1189.8 0.75 1190.55 1.67 1190.55
										 C2.59 1190.55 3.34 1189.8 3.34 1188.88 L3.34 1185.43 C3.34 1184.51 2.59 1183.76 1.67 1183.76
										 Z" class="st16"/>
						</g>
						<g id="shape63-106" v:mID="63" v:groupContext="shape" transform="translate(51.0934,-33.0882)">
							<title>XMLID_1602_</title>
							<path d="M1.67 1183.76 C0.75 1183.76 0 1184.51 0 1185.43 L0 1188.88 C0 1189.8 0.75 1190.55 1.67 1190.55
										 C2.59 1190.55 3.34 1189.8 3.34 1188.88 L3.34 1185.43 C3.34 1184.51 2.59 1183.76 1.67 1183.76
										 Z" class="st16"/>
						</g>
						<g id="shape64-108" v:mID="64" v:groupContext="shape" transform="translate(57.7723,-33.0882)">
							<title>XMLID_1604_</title>
							<path d="M1.67 1183.76 C0.75 1183.76 0 1184.51 0 1185.43 L0 1188.88 C0 1189.8 0.75 1190.55 1.67 1190.55
										 C2.59 1190.55 3.34 1189.8 3.34 1188.88 L3.34 1185.43 C3.34 1184.51 2.59 1183.76 1.67 1183.76
										 Z" class="st16"/>
						</g>
						<g id="shape65-110" v:mID="65" v:groupContext="shape">
							<title>XMLID_1608_</title>
							<path d="M83.82 1164.5 L77.14 1164.5 L77.14 1160.83 C77.14 1159.91 76.39 1159.16 75.47 1159.16 L67.79
										 1159.16 L67.79 1147.81 L68.96 1147.81 C69.88 1147.81 70.63 1147.06 70.63 1146.14 C70.63
										 1145.21 69.88 1144.47 68.96 1144.47 L64.28 1144.47 L64.28 1135.78 C65.13 1135.69 65.79 1134.98
										 65.79 1134.11 C65.79 1133.19 65.04 1132.44 64.12 1132.44 L62.61 1132.44 L60 1132.44 L60
										 1131 C60 1122.05 53.15 1114.67 44.41 1113.83 L44.41 1106.79 C44.41 1105.87 43.67 1105.12
										 42.74 1105.12 C41.82 1105.12 41.08 1105.87 41.08 1106.79 L41.08 1113.83 C32.34 1114.67 25.49
										 1122.05 25.49 1131 L25.49 1132.44 L22.88 1132.44 L21.37 1132.44 C20.45 1132.44 19.7 1133.19
										 19.7 1134.11 C19.7 1134.98 20.36 1135.69 21.21 1135.78 L21.21 1144.47 L16.53 1144.47 C15.61
										 1144.47 14.86 1145.21 14.86 1146.14 C14.86 1147.06 15.61 1147.81 16.53 1147.81 L17.7 1147.81
										 L17.7 1159.16 L10.02 1159.16 C9.1 1159.16 8.35 1159.91 8.35 1160.83 L8.35 1164.5 L1.67 1164.5
										 C0.75 1164.5 0 1165.25 0 1166.17 L0 1188.88 C0 1189.8 0.75 1190.55 1.67 1190.55 L83.82 1190.55
										 C84.74 1190.55 85.49 1189.8 85.49 1188.88 L85.49 1166.17 C85.49 1165.25 84.74 1164.5 83.82
										 1164.5 ZM28.83 1131 C28.83 1123.33 35.07 1117.08 42.74 1117.08 C50.42 1117.08 56.66 1123.33
										 56.66 1131 L56.66 1132.44 L28.83 1132.44 L28.83 1131 ZM24.54 1135.78 L27.16 1135.78 L58.33
										 1135.78 L60.94 1135.78 L60.94 1144.47 L24.54 1144.47 L24.54 1135.78 ZM21.04 1147.81 L64.45
										 1147.81 L64.45 1159.16 L21.04 1159.16 L21.04 1147.81 ZM3.34 1167.84 L8.35 1167.84 L8.35
										 1187.21 L3.34 1187.21 L3.34 1167.84 ZM11.69 1166.17 L11.69 1162.5 L73.8 1162.5 L73.8 1166.17
										 L73.8 1187.21 L11.69 1187.21 L11.69 1166.17 ZM82.15 1187.21 L77.14 1187.21 L77.14 1167.84
										 L82.15 1167.84 L82.15 1187.21 Z" class="st16"/>
						</g>
					</g>
				</g>
			</g>
		</a>
		<a
				xlink:href="https://isosolutionsinfo.sharepoint.com/:u:/s/MajorProjectIMS/EX2HPrt4DQ9NjxzeWJXa648BZOGqFEns5YA66HnE8nnyiw?e=37cR6g">
			<g id="group93-112" transform="translate(277.791,-779.528)" v:mID="93" v:groupContext="group">
				<title>Sheet.93</title>
				<g id="shape72-113" v:mID="72" v:groupContext="shape">
					<title>Sheet.72</title>
					<rect x="0" y="1048.82" width="107.717" height="141.732" class="st12"/>
				</g>
				<g id="shape73-115" v:mID="73" v:groupContext="shape" transform="translate(10.5287,-3.03712)">
					<title>Sheet.73</title>
					<desc>Design</desc>
					<v:textBlock v:margins="rect(4,4,4,4)" v:tabSpace="42.5197"/>
					<v:textRect cx="42.5197" cy="1169.29" width="85.04" height="42.5197"/>
					<rect x="0" y="1148.03" width="85.0394" height="42.5197" class="st9"/>
					<text x="20.68" y="1174.09" class="st14" v:langID="2057"><v:paragraph v:horizAlign="1"/><v:tabList/>Design</text>				</g>
				<g id="group74-118" transform="translate(13.9066,-45.0877)" v:mID="74" v:groupContext="group">
					<title>Sheet.74</title>
					<g id="group75-119" v:mID="75" v:groupContext="group">
						<title>Sheet.75</title>
						<g id="shape76-120" v:mID="76" v:groupContext="shape">
							<title>Sheet.76</title>
							<path d="M78.73 1118.4 L42.26 1118.4 L42.26 1111.82 C42.26 1111.17 41.73 1110.65 41.09 1110.65 L33.78
										 1110.65 C33.14 1110.65 32.61 1111.17 32.61 1111.82 L32.61 1118.4 L18.29 1118.4 C17.64 1118.4
										 17.12 1118.93 17.12 1119.57 L17.12 1129.64 C16.35 1130.05 15.61 1130.59 15 1131.21 L15 1127.77
										 C15 1125.65 12.89 1123.91 9.75 1123.33 L9.75 1120.79 C9.75 1120.14 9.22 1119.62 8.58 1119.62
										 C6.5 1119.62 4.4 1120.41 2.8 1121.8 C0.99 1123.37 0 1125.54 0 1127.92 L0 1132.82 C0 1134.33
										 2.34 1134.33 2.34 1132.82 L2.34 1127.92 C2.34 1125.35 4.25 1122.61 7.41 1122.06 L7.41 1166.96
										 C5.57 1167.19 3.69 1167.92 2.35 1169.22 C2.34 1167.62 2.34 1139.04 2.34 1139.04 C2.34 1137.53
										 0 1137.53 0 1139.04 L0 1175.4 C0 1175.46 0.01 1175.53 0.02 1175.59 C0.13 1179.02 3.31 1181.59
										 7.5 1181.59 C9.53 1181.59 11.34 1181.01 12.68 1180.06 L12.68 1184.36 C12.68 1188.32 16.64
										 1190.55 20.18 1190.55 C23.94 1190.55 27.68 1188.43 27.68 1184.36 L27.67 1167.81 L61.01 1167.81
										 L36.72 1188.49 C35.91 1189.18 36.41 1190.55 37.48 1190.55 L72.73 1190.55 C73.37 1190.55
										 73.9 1190.03 73.9 1189.38 L73.9 1183.7 C73.9 1182.19 71.56 1182.19 71.56 1183.7 L71.56 1188.21
										 L40.66 1188.21 L71.56 1161.9 L71.56 1177.25 C71.56 1178.76 73.9 1178.76 73.9 1177.25 L73.9
										 1167.81 L78.73 1167.81 C79.38 1167.81 79.9 1167.29 79.9 1166.64 L79.9 1150.3 L79.9 1119.57
										 C79.9 1118.93 79.38 1118.4 78.73 1118.4 ZM77.56 1120.74 L77.56 1149.13 L50.15 1149.13 L50.15
										 1120.74 L77.56 1120.74 ZM39.91 1112.99 L39.91 1142.94 L34.95 1142.94 L34.95 1139.95 L35.8
										 1139.95 C37.32 1139.95 37.32 1137.61 35.8 1137.61 L34.95 1137.61 L34.95 1134.54 L36.9 1134.54
										 C38.41 1134.54 38.41 1132.2 36.9 1132.2 L34.95 1132.2 L34.95 1129.14 L35.8 1129.14 C36.45
										 1129.14 36.97 1128.61 36.97 1127.97 C36.97 1127.32 36.45 1126.8 35.8 1126.8 L34.95 1126.8
										 L34.95 1123.73 L36.9 1123.73 C38.41 1123.73 38.41 1121.39 36.9 1121.39 L34.95 1121.39 L34.95
										 1118.32 L35.8 1118.32 C37.32 1118.32 37.32 1115.98 35.8 1115.98 L34.95 1115.98 L34.95 1112.99
										 L39.91 1112.99 ZM18.49 1131.53 C18.99 1131.29 19.52 1131.12 20.08 1131.02 L20.08 1175.92
										 C18.78 1176.09 16.67 1176.6 15.02 1178.18 C15.02 1176.61 15.02 1175.39 15.02 1175.36 L15.01
										 1136.88 C15.01 1134.78 16.29 1132.56 18.49 1131.53 ZM25.34 1180.94 C25.3 1180.92 25.26 1180.9
										 25.22 1180.88 C23.87 1180.14 22.12 1179.73 20.27 1179.72 L20.27 1178.26 C20.83 1178.18 21.21
										 1178.19 21.22 1178.19 C21.95 1178.14 22.35 1177.75 22.42 1177.02 L22.42 1134.69 C23.97 1135.08
										 25.33 1135.87 25.33 1136.74 L25.34 1180.94 ZM12.66 1127.77 L12.66 1166.4 L12.66 1171.96
										 C11.35 1171.22 9.59 1170.76 7.59 1170.75 L7.59 1169.3 C8.15 1169.22 8.53 1169.22 8.54 1169.22
										 C9.27 1169.18 9.67 1168.79 9.75 1168.05 L9.75 1125.72 C11.53 1126.15 12.66 1127.04 12.66
										 1127.77 ZM12.66 1175.95 C12.66 1177.74 10.29 1179.25 7.5 1179.25 C4.56 1179.25 2.35 1177.59
										 2.35 1175.4 C2.35 1173.17 3.16 1171.07 5.25 1170 L5.25 1171.97 C5.33 1172.74 5.76 1173.13
										 6.53 1173.14 C8.16 1172.98 9.96 1173.17 11.41 1173.96 C12.25 1174.43 12.72 1175.01 12.66
										 1175.95 ZM20.18 1188.21 C20.18 1188.21 20.18 1188.21 20.18 1188.21 C17.25 1188.21 15.03
										 1186.56 15.03 1184.36 C15.03 1182.14 15.84 1180.03 17.93 1178.97 L17.93 1180.94 C18.01 1181.7
										 18.44 1182.09 19.21 1182.1 C21.2 1181.92 25.43 1182.23 25.34 1184.91 C25.34 1186.7 22.97
										 1188.21 20.18 1188.21 ZM27.67 1136.74 C27.67 1134.63 25.55 1132.88 22.42 1132.29 L22.42
										 1129.75 C22.35 1129.04 21.96 1128.65 21.25 1128.58 C20.65 1128.58 20.05 1128.65 19.46 1128.78
										 L19.46 1120.74 L32.61 1120.74 L32.61 1144.11 C32.61 1144.76 33.14 1145.28 33.78 1145.28
										 L41.09 1145.28 C41.73 1145.28 42.26 1144.76 42.26 1144.11 L42.26 1120.74 L47.81 1120.74
										 L47.81 1150.3 L47.81 1165.47 L27.67 1165.47 L27.67 1136.74 ZM73.22 1158.31 C72.8 1158.12
										 72.32 1158.18 71.97 1158.48 L63.76 1165.47 L50.15 1165.47 L50.15 1151.47 L77.56 1151.47
										 L77.56 1165.47 L73.9 1165.47 L73.9 1159.37 C73.9 1158.91 73.63 1158.5 73.22 1158.31 Z"
									class="st16"/>
						</g>
						<g id="shape77-122" v:mID="77" v:groupContext="shape" transform="translate(54.5962,-46.3631)">
							<title>Sheet.77</title>
							<path d="M1.17 1190.55 L11.96 1190.55 C12.26 1190.55 12.57 1190.43 12.78 1190.21 L18.18 1184.82 C18.4
										 1184.6 18.52 1184.3 18.52 1183.99 L18.52 1173.22 C18.52 1172.59 17.98 1172.05 17.35 1172.05
										 L6.56 1172.05 C6.25 1172.05 5.95 1172.18 5.73 1172.4 L0.34 1177.78 C0.13 1178 0 1178.3 0
										 1178.61 L0 1189.38 C0 1190.03 0.52 1190.55 1.17 1190.55 ZM2.34 1179.78 L10.78 1179.78 L10.78
										 1188.21 L2.34 1188.21 L2.34 1179.78 ZM13.13 1186.56 L13.13 1179.1 L16.18 1176.05 L16.18
										 1183.51 L13.13 1186.56 ZM7.05 1174.39 L14.52 1174.39 L11.47 1177.44 L4 1177.44 L7.05 1174.39
										 Z" class="st16"/>
						</g>
						<g id="shape78-124" v:mID="78" v:groupContext="shape" transform="translate(55.9112,-28.5456)">
							<title>Sheet.78</title>
							<path d="M5.39 1188.21 L1.51 1188.21 C0 1188.21 0 1190.55 1.51 1190.55 L5.39 1190.55 C6.9 1190.55 6.9
										 1188.21 5.39 1188.21 Z" class="st16"/>
						</g>
						<g id="shape79-126" v:mID="79" v:groupContext="shape" transform="translate(55.9112,-33.2032)">
							<title>Sheet.79</title>
							<path d="M11.45 1188.21 L1.51 1188.21 C0 1188.21 0 1190.55 1.51 1190.55 L11.45 1190.55 C12.96 1190.55
										 12.96 1188.21 11.45 1188.21 Z" class="st16"/>
						</g>
						<g id="shape80-128" v:mID="80" v:groupContext="shape" transform="translate(51.3396,-5.67781)">
							<title>Sheet.80</title>
							<path d="M14.94 1176.46 L0.81 1188.49 C0 1189.18 0.5 1190.55 1.57 1190.55 L15.7 1190.55 C16.35 1190.55
										 16.87 1190.03 16.87 1189.38 L16.87 1177.35 C16.87 1176.46 15.75 1175.77 14.94 1176.46 ZM14.53
										 1188.21 L4.75 1188.21 L14.53 1179.88 L14.53 1188.21 Z" class="st16"/>
						</g>
					</g>
				</g>
			</g>
		</a>
		<a
				xlink:href="https://isosolutionsinfo.sharepoint.com/:u:/s/MajorProjectIMS/EcuuxC64p4NFod_V8zlT47kBZASBkAOQPO5T6KB9medOig?e=OJawHj">
			<g id="group94-130" transform="translate(456.374,-779.528)" v:mID="94" v:groupContext="group">
				<title>Sheet.94</title>
				<g id="shape81-131" v:mID="81" v:groupContext="shape">
					<title>Sheet.81</title>
					<rect x="0" y="1048.82" width="107.717" height="141.732" class="st12"/>
				</g>
				<g id="shape82-133" v:mID="82" v:groupContext="shape" transform="translate(0.00414175,-3.03712)">
					<title>Sheet.82</title>
					<desc>Construction</desc>
					<v:textBlock v:margins="rect(4,4,4,4)" v:tabSpace="42.5197"/>
					<v:textRect cx="53.8583" cy="1169.29" width="107.72" height="42.5197"/>
					<rect x="0" y="1148.03" width="107.717" height="42.5197" class="st9"/>
					<text x="12.05" y="1174.09" class="st14" v:langID="2057"><v:paragraph v:horizAlign="1"/><v:tabList/>Construction</text>				</g>
				<g id="group83-136" transform="translate(17.892,-48.5939)" v:mID="83" v:groupContext="group">
					<title>Sheet.83</title>
					<g id="group84-137" v:mID="84" v:groupContext="group">
						<title>Sheet.84</title>
						<g id="shape85-138" v:mID="85" v:groupContext="shape" transform="translate(13.9224,-2.3204)">
							<title>Sheet.85</title>
							<path d="M6.96 1187.07 C6.96 1185.15 5.4 1183.59 3.48 1183.59 C1.56 1183.59 0 1185.15 0 1187.07 C0 1188.99
										 1.56 1190.55 3.48 1190.55 C5.4 1190.55 6.96 1188.99 6.96 1187.07 ZM3.48 1188.23 C2.84 1188.23
										 2.32 1187.71 2.32 1187.07 C2.32 1186.43 2.84 1185.91 3.48 1185.91 C4.12 1185.91 4.64 1186.43
										 4.64 1187.07 C4.64 1187.71 4.12 1188.23 3.48 1188.23 Z" class="st17"/>
						</g>
						<g id="shape86-140" v:mID="86" v:groupContext="shape" transform="translate(25.5244,-2.3204)">
							<title>Sheet.86</title>
							<path d="M6.96 1187.07 C6.96 1185.15 5.4 1183.59 3.48 1183.59 C1.56 1183.59 0 1185.15 0 1187.07 C0 1188.99
										 1.56 1190.55 3.48 1190.55 C5.4 1190.55 6.96 1188.99 6.96 1187.07 ZM3.48 1188.23 C2.84 1188.23
										 2.32 1187.71 2.32 1187.07 C2.32 1186.43 2.84 1185.91 3.48 1185.91 C4.12 1185.91 4.64 1186.43
										 4.64 1187.07 C4.64 1187.71 4.12 1188.23 3.48 1188.23 Z" class="st17"/>
						</g>
						<g id="shape87-142" v:mID="87" v:groupContext="shape" transform="translate(46.4081,-51.0489)">
							<title>Sheet.87</title>
							<path d="M0 1190.55 L9.28 1190.55 L9.28 1183.59 L0 1183.59 L0 1190.55 ZM2.32 1185.91 L6.96 1185.91 L6.96
										 1188.23 L2.32 1188.23 L2.32 1185.91 Z" class="st17"/>
						</g>
						<g id="shape88-144" v:mID="88" v:groupContext="shape">
							<title>Sheet.88</title>
							<path d="M60.12 1141.82 L71.93 1141.82 L71.93 1130.22 L68.85 1130.22 L53.76 1118.62 L48.53 1118.62 L14.89
										 1130.22 L9.9 1130.22 L4.15 1137.12 C3.72 1137.64 3.48 1138.29 3.48 1138.96 C3.48 1140.54
										 4.76 1141.82 6.35 1141.82 L11.6 1141.82 L11.6 1148.78 L0 1148.78 L0 1160.39 L11.6 1160.39
										 C11.6 1161.67 12.64 1162.71 13.92 1162.71 L16.24 1162.71 C17.52 1162.71 18.56 1161.67 18.56
										 1160.39 L30.17 1160.39 L30.17 1148.78 L18.56 1148.78 L18.56 1141.82 L41.98 1141.82 C42.33
										 1142.81 43.1 1143.58 44.09 1143.93 L44.09 1160.19 L35.5 1165.97 C34.02 1164 31.66 1162.71
										 29.01 1162.71 L22.04 1162.71 C18.85 1162.71 16.24 1165.31 16.24 1168.51 L16.24 1169.67 L5.8
										 1169.67 C2.6 1169.67 0 1172.27 0 1175.47 L0 1181.27 L10.47 1181.27 C9.74 1182.24 9.28 1183.44
										 9.28 1184.75 C9.28 1187.95 11.88 1190.55 15.08 1190.55 L30.17 1190.55 L31.33 1190.55 L58.67
										 1190.55 L59.17 1190.55 L63.81 1190.55 C68.29 1190.55 71.93 1186.91 71.93 1182.43 L71.93
										 1175.47 L71.93 1174.31 L71.93 1173.79 L58.01 1161.5 L58.01 1143.93 C58.99 1143.58 59.77
										 1142.81 60.12 1141.82 ZM51.05 1155.75 C49.14 1155.75 47.47 1156.68 46.41 1158.1 L46.41 1144.14
										 L55.69 1144.14 L55.69 1158.1 C54.63 1156.68 52.95 1155.75 51.05 1155.75 ZM30.17 1178.95
										 L23.2 1178.95 L23.2 1169.67 L29.01 1169.67 C29.65 1169.67 30.17 1170.19 30.17 1170.83 L30.17
										 1178.95 ZM37.13 1181.27 L37.13 1175.84 L44.09 1171.13 L44.09 1185.91 C44.09 1186.72 44.26
										 1187.51 44.58 1188.23 L35.94 1188.23 C36.67 1187.26 37.13 1186.06 37.13 1184.75 C37.13 1183.44
										 36.67 1182.24 35.94 1181.27 L37.13 1181.27 ZM46.41 1185.91 C46.41 1183.99 47.97 1182.43
										 49.89 1182.43 C50.6 1182.43 51.29 1182.65 51.88 1183.06 L53.01 1183.86 L53.6 1182.61 C53.99
										 1181.78 54.79 1181.27 55.69 1181.27 C56.77 1181.27 57.67 1182 57.93 1183.01 L56.11 1186.04
										 C55.84 1186.5 55.69 1187.03 55.69 1187.57 C55.69 1187.8 55.72 1188.02 55.77 1188.23 L47.32
										 1188.23 C46.75 1187.59 46.41 1186.78 46.41 1185.91 ZM59.32 1180.7 C58.96 1180.25 58.51 1179.87
										 58.01 1179.58 L58.01 1172.22 L62.3 1175.73 L59.32 1180.7 ZM55.69 1178.95 C54.32 1178.95
										 53.04 1179.56 52.17 1180.58 C51.45 1180.27 50.68 1180.11 49.89 1180.11 C48.58 1180.11 47.38
										 1180.56 46.41 1181.3 L46.41 1169.57 L49.87 1167.23 C50.25 1167.3 50.65 1167.35 51.05 1167.35
										 C51.36 1167.35 51.65 1167.3 51.94 1167.26 L55.69 1170.32 L55.69 1178.95 ZM51.05 1165.03
										 C49.13 1165.03 47.57 1163.47 47.57 1161.55 C47.57 1159.63 49.13 1158.07 51.05 1158.07 C52.97
										 1158.07 54.53 1159.63 54.53 1161.55 C54.53 1163.47 52.97 1165.03 51.05 1165.03 ZM58.01 1140.66
										 C58.01 1141.3 57.49 1141.82 56.85 1141.82 L45.25 1141.82 C44.61 1141.82 44.09 1141.3 44.09
										 1140.66 L44.09 1131.38 C44.09 1130.74 44.61 1130.22 45.25 1130.22 L56.85 1130.22 C57.49
										 1130.22 58.01 1130.74 58.01 1131.38 L58.01 1140.66 ZM49.53 1120.94 L52.57 1120.94 L55.18
										 1127.9 L46.92 1127.9 L49.53 1120.94 ZM69.61 1139.5 L60.33 1139.5 L60.33 1132.54 L69.61 1132.54
										 L69.61 1139.5 ZM60.12 1130.22 C59.73 1129.14 58.83 1128.3 57.7 1128.02 L55.88 1123.18 L65.04
										 1130.22 L60.12 1130.22 ZM46.78 1121.68 L44.4 1128.02 C43.27 1128.3 42.37 1129.13 41.98 1130.22
										 L22.01 1130.22 L46.78 1121.68 ZM25.52 1133.31 L30.17 1139.5 L20.88 1139.5 L25.52 1133.31
										 ZM18.56 1138.73 L13.92 1132.54 L23.2 1132.54 L18.56 1138.73 ZM27.84 1132.54 L37.13 1132.54
										 L32.49 1138.73 L27.84 1132.54 ZM40.03 1132.54 L41.77 1132.54 L41.77 1139.5 L34.81 1139.5
										 L40.03 1132.54 ZM5.8 1138.96 C5.8 1138.83 5.85 1138.71 5.93 1138.61 L10.99 1132.54 L11.02
										 1132.54 L16.24 1139.5 L6.35 1139.5 C6.04 1139.5 5.8 1139.26 5.8 1138.96 ZM11.6 1151.1 L11.6
										 1153.42 L2.32 1153.42 L2.32 1151.1 L11.6 1151.1 ZM2.32 1158.07 L2.32 1155.75 L11.6 1155.75
										 L11.6 1158.07 L2.32 1158.07 ZM18.56 1158.07 L18.56 1155.75 L27.84 1155.75 L27.84 1158.07
										 L18.56 1158.07 ZM27.84 1151.1 L27.84 1153.42 L18.56 1153.42 L18.56 1151.1 L27.84 1151.1
										 ZM16.24 1160.39 L13.92 1160.39 L13.92 1141.82 L16.24 1141.82 L16.24 1160.39 ZM45.31 1162.17
										 C45.48 1163.74 46.27 1165.12 47.45 1166.06 L37.13 1173.04 L37.13 1170.83 C37.13 1169.84
										 36.94 1168.9 36.62 1168.02 L45.31 1162.17 ZM2.32 1175.47 C2.32 1173.55 3.88 1171.99 5.8
										 1171.99 L18.56 1171.99 L18.56 1168.51 C18.56 1166.59 20.12 1165.03 22.04 1165.03 L29.01
										 1165.03 C32.2 1165.03 34.81 1167.63 34.81 1170.83 L34.81 1178.95 L32.49 1178.95 L32.49 1170.83
										 C32.49 1168.91 30.92 1167.35 29.01 1167.35 L23.2 1167.35 C21.92 1167.35 20.88 1168.39 20.88
										 1169.67 L20.88 1178.95 L15.08 1178.95 L2.32 1178.95 L2.32 1175.47 ZM30.17 1188.23 L29.01
										 1188.23 L17.4 1188.23 L15.08 1188.23 C13.16 1188.23 11.6 1186.67 11.6 1184.75 C11.6 1182.83
										 13.16 1181.27 15.08 1181.27 L17.4 1181.27 L29.01 1181.27 L31.33 1181.27 C33.24 1181.27 34.81
										 1182.83 34.81 1184.75 C34.81 1186.67 33.24 1188.23 31.33 1188.23 L30.17 1188.23 ZM69.61
										 1182.43 C69.61 1185.63 67.01 1188.23 63.81 1188.23 L59.17 1188.23 L58.67 1188.23 C58.3 1188.23
										 58.01 1187.94 58.01 1187.57 C58.01 1187.46 58.04 1187.34 58.1 1187.24 L64.47 1176.63 L69.61
										 1176.63 L69.61 1182.43 ZM64.23 1174.31 L54.4 1166.27 C55.41 1165.55 56.16 1164.51 56.55
										 1163.31 L69.02 1174.31 L64.23 1174.31 Z" class="st17"/>
						</g>
						<g id="shape89-146" v:mID="89" v:groupContext="shape" transform="translate(4.64081,-13.9224)">
							<title>Sheet.89</title>
							<rect x="0" y="1188.23" width="2.3204" height="2.3204" class="st17"/>
						</g>
						<g id="shape90-148" v:mID="90" v:groupContext="shape" transform="translate(9.28161,-13.9224)">
							<title>Sheet.90</title>
							<rect x="0" y="1188.23" width="2.3204" height="2.3204" class="st17"/>
						</g>
						<g id="shape91-150" v:mID="91" v:groupContext="shape" transform="translate(13.9224,-13.9224)">
							<title>Sheet.91</title>
							<rect x="0" y="1188.23" width="2.3204" height="2.3204" class="st17"/>
						</g>
					</g>
				</g>
			</g>
		</a>
		<g id="shape96-152" v:mID="96" v:groupContext="shape" transform="translate(643.4,-798.488) rotate(19.179) scale(-1,1)">
			<title>Notched Arrow</title>
			<v:userDefs>
				<v:ud v:nameU="visVersion" v:val="VT0(15):26"/>
				<v:ud v:nameU="ArrowType" v:prompt="" v:val="VT0(2):26"/>
			</v:userDefs>
			<path d="M0 1190.55 L11.34 1179.21 L11.34 1184.88 L69.03 1184.88 L63.36 1190.55 L69.03 1196.22 L11.34 1196.22 L11.34
						 1201.89 L0 1190.55 Z" class="st18"/>
		</g>
		<g id="shape97-154" v:mID="97" v:groupContext="shape" transform="translate(454.865,-858.757) rotate(0.132018) scale(-1,1)">
			<title>Notched Arrow.97</title>
			<v:userDefs>
				<v:ud v:nameU="visVersion" v:val="VT0(15):26"/>
				<v:ud v:nameU="ArrowType" v:prompt="" v:val="VT0(2):26"/>
			</v:userDefs>
			<path d="M0 1190.55 L11.34 1179.21 L11.34 1184.88 L59.53 1184.88 L53.86 1190.55 L59.53 1196.22 L11.34 1196.22 L11.34
						 1201.89 L0 1190.55 Z" class="st18"/>
		</g>
		<g id="shape98-156" v:mID="98" v:groupContext="shape" transform="translate(35.1347,-748.946) rotate(-29.4664) scale(-1,1)">
			<title>Notched Arrow.98</title>
			<v:userDefs>
				<v:ud v:nameU="visVersion" v:val="VT0(15):26"/>
				<v:ud v:nameU="ArrowType" v:prompt="" v:val="VT0(2):26"/>
			</v:userDefs>
			<path d="M0 1190.55 L11.34 1179.21 L11.34 1184.88 L65.12 1184.88 L59.45 1190.55 L65.12 1196.22 L11.34 1196.22 L11.34
						 1201.89 L0 1190.55 Z" class="st18"/>
		</g>
		<g id="shape99-158" v:mID="99" v:groupContext="shape" transform="translate(-74.5112,-925.67) rotate(-19.44) scale(-1,1)">
			<title>Notched Arrow.99</title>
			<v:userDefs>
				<v:ud v:nameU="visVersion" v:val="VT0(15):26"/>
				<v:ud v:nameU="ArrowType" v:prompt="" v:val="VT0(2):26"/>
			</v:userDefs>
			<path d="M0 1190.55 L11.34 1179.21 L11.34 1184.88 L127.76 1184.88 L122.09 1190.55 L127.76 1196.22 L11.34 1196.22 L11.34
						 1201.89 L0 1190.55 Z" class="st18"/>
		</g>
		<g id="shape100-160" v:mID="100" v:groupContext="shape" transform="translate(981.678,-904.102) rotate(18.4349) scale(-1,1)">
			<title>Notched Arrow.100</title>
			<v:userDefs>
				<v:ud v:nameU="visVersion" v:val="VT0(15):26"/>
				<v:ud v:nameU="ArrowType" v:prompt="" v:val="VT0(2):26"/>
			</v:userDefs>
			<path d="M0 1190.55 L11.34 1179.21 L11.34 1184.88 L112.05 1184.88 L106.38 1190.55 L112.05 1196.22 L11.34 1196.22 L11.34
						 1201.89 L0 1190.55 Z" class="st18"/>
		</g>
		<g id="group111-162" transform="translate(1281.26,-1030.08)" v:mID="111" v:groupContext="group">
			<v:custProps>
				<v:cp v:nameU="popuplink" v:lbl="active shape" v:type="0" v:langID="2057" v:val="VT4(01)"/>
			</v:custProps>
			<title>Sheet.111</title>
			<g id="shape112-163" v:mID="112" v:groupContext="shape">
				<title>Sheet.112</title>
				<rect x="0" y="1048.82" width="107.717" height="141.732" class="st12"/>
			</g>
			<g id="group113-165" transform="translate(10.5204,-45.1623)" v:mID="113" v:groupContext="group">
				<title>Sheet.113</title>
				<g id="shape114-166" v:mID="114" v:groupContext="shape" transform="translate(41.1529,-34.9709)">
					<title>Sheet.114</title>
					<path d="M17.16 1188.09 L5.63 1181.01 C5.49 1180.92 5.33 1180.86 5.17 1180.84 L1.56 1180.2 C0.89 1180.08 0.24
								 1180.54 0.12 1181.21 C0 1181.88 0.46 1182.53 1.13 1182.65 L4.53 1183.25 L15.86 1190.21 C16.41 1190.55
								 17.17 1190.39 17.54 1189.85 C17.93 1189.28 17.75 1188.46 17.16 1188.09 Z" class="st13"/>
				</g>
				<g id="shape115-168" v:mID="115" v:groupContext="shape">
					<title>Sheet.115</title>
					<path d="M84.58 1153.52 C84.11 1153.02 83.32 1152.99 82.82 1153.46 L77.78 1158.17 L54.67 1135.37 L84.52 1107.4
								 C85.02 1106.93 85.05 1106.15 84.58 1105.64 C84.11 1105.14 83.32 1105.12 82.82 1105.59 L52.03 1134.44
								 C51.52 1134.92 51.51 1135.75 52 1136.24 L54.05 1138.25 L53.4 1138.83 L39.73 1137.65 C39.52 1137.64
								 39.3 1137.67 39.11 1137.76 L28.29 1142.69 C28.26 1142.68 28.23 1142.67 28.19 1142.67 L21.97 1141.57
								 L22.47 1140.28 C22.72 1139.65 22.41 1138.93 21.77 1138.67 L1.87 1130.71 C1.23 1130.46 0.51 1130.77
								 0.26 1131.41 C0 1132.04 0.31 1132.77 0.95 1133.02 L19.7 1140.53 L8.65 1168.77 L1.83 1166.35 C1.18
								 1166.12 0.47 1166.46 0.24 1167.11 C0.01 1167.76 0.35 1168.47 0.99 1168.7 L8.96 1171.52 C9.58 1171.74
								 10.29 1171.42 10.53 1170.8 L12.38 1166.08 L17.22 1168.79 L16.68 1169.66 C15.17 1172.11 15.93 1175.33
								 18.38 1176.84 C19.68 1177.64 21.29 1177.83 22.74 1177.37 C22.97 1178.87 23.86 1180.22 25.16 1181.02
								 C26.46 1181.82 28.07 1182.01 29.51 1181.55 C29.75 1183.06 30.63 1184.4 31.93 1185.2 C33.23 1186.01
								 34.84 1186.2 36.29 1185.73 C36.52 1187.24 37.41 1188.58 38.71 1189.38 C40.6 1190.55 43.1 1190.38
								 44.81 1188.95 C45.23 1188.59 45.6 1188.16 45.9 1187.68 L46.75 1186.31 L47.45 1186.74 C49.34 1187.9
								 51.84 1187.72 53.54 1186.29 C53.97 1185.93 54.34 1185.5 54.63 1185.02 C55.21 1184.07 55.46 1183.01
								 55.39 1181.97 C55.79 1182.07 56.19 1182.12 56.6 1182.12 C58.41 1182.12 60.11 1181.17 61.06 1179.63
								 C61.63 1178.7 61.89 1177.64 61.82 1176.58 C62.22 1176.67 62.62 1176.72 63.03 1176.72 C64.83 1176.72
								 66.54 1175.77 67.49 1174.23 C68.06 1173.31 68.32 1172.25 68.25 1171.18 C68.65 1171.28 69.05 1171.33
								 69.46 1171.33 C71.21 1171.33 72.93 1170.44 73.92 1168.84 C75.43 1166.39 74.66 1163.16 72.2 1161.65
								 L71.35 1161.13 L74.21 1158.14 L76.88 1160.78 C77.35 1161.25 78.12 1161.26 78.6 1160.81 L84.52 1155.28
								 C85.02 1154.81 85.05 1154.02 84.58 1153.52 ZM23.46 1173.84 C22.66 1175.12 20.98 1175.52 19.69 1174.73
								 C18.41 1173.94 18.01 1172.25 18.8 1170.96 L25.77 1159.67 C26.54 1158.41 28.21 1158 29.49 1158.75
								 C30.8 1159.53 31.17 1161.34 30.38 1162.62 L23.46 1173.84 ZM30.23 1178.02 C29.44 1179.3 27.75 1179.7
								 26.47 1178.91 C25.2 1178.12 24.79 1176.41 25.57 1175.14 L31.15 1166.11 C31.92 1164.85 33.59 1164.44
								 34.87 1165.19 C36.19 1165.97 36.55 1167.78 35.76 1169.06 L30.23 1178.02 ZM37.01 1182.2 C36.62 1182.82
								 36.02 1183.25 35.31 1183.42 C34.6 1183.59 33.86 1183.47 33.24 1183.09 C31.97 1182.3 31.56 1180.59
								 32.35 1179.32 L36.53 1172.55 C37.31 1171.29 38.98 1170.87 40.25 1171.63 C41.57 1172.41 41.93 1174.21
								 41.14 1175.5 L37.01 1182.2 ZM46.52 1181.94 L43.78 1186.38 C43 1187.64 41.29 1188.05 40.02 1187.27
								 C38.75 1186.49 38.34 1184.77 39.12 1183.5 L41.91 1178.99 C42.69 1177.73 44.36 1177.31 45.63 1178.07
								 C46.95 1178.85 47.31 1180.65 46.52 1181.94 ZM69.18 1159.8 L63.01 1156.01 C62.44 1155.66 61.65 1155.85
								 61.3 1156.42 C60.95 1156.99 61.14 1157.78 61.71 1158.13 L70.9 1163.77 C72.18 1164.56 72.59 1166.25
								 71.8 1167.54 C71.01 1168.82 69.32 1169.23 68.03 1168.44 L58.18 1162.38 C57.6 1162.02 56.83 1162.21
								 56.47 1162.79 C56.11 1163.38 56.29 1164.14 56.88 1164.5 L64.47 1169.17 C65.74 1169.95 66.15 1171.66
								 65.37 1172.93 C64.59 1174.2 62.88 1174.61 61.61 1173.83 L54.73 1169.6 C54.14 1169.24 53.37 1169.43
								 53.01 1170.01 C52.66 1170.6 52.84 1171.36 53.42 1171.72 L58.04 1174.56 C59.31 1175.34 59.72 1177.05
								 58.94 1178.32 C58.16 1179.59 56.45 1180 55.18 1179.22 C55.18 1179.22 51.11 1176.73 51.08 1176.71
								 C50.51 1176.44 49.81 1176.63 49.48 1177.18 C49.12 1177.77 49.3 1178.53 49.89 1178.89 L51.61 1179.95
								 C52.9 1180.74 53.3 1182.43 52.51 1183.72 C51.73 1184.99 50.02 1185.4 48.75 1184.62 L48.05 1184.19
								 L48.64 1183.24 C49.39 1182.03 49.62 1180.54 49.28 1179.15 C48.94 1177.77 48.09 1176.63 46.9 1175.92
								 C45.96 1175.37 44.92 1175.15 43.91 1175.22 C44.1 1174.4 44.1 1173.54 43.89 1172.71 C43.56 1171.34
								 42.71 1170.19 41.52 1169.49 C40.58 1168.93 39.54 1168.71 38.53 1168.78 C39.04 1166.58 38.09 1164.21
								 36.13 1163.05 C35.2 1162.5 34.16 1162.27 33.14 1162.34 C33.66 1160.14 32.71 1157.77 30.75 1156.61
								 C28.32 1155.17 25.13 1155.96 23.65 1158.36 L18.52 1166.67 L13.29 1163.74 L21.04 1143.93 L25.26 1144.68
								 C24.06 1146.17 23.72 1148.27 24.57 1150.12 C25.44 1152.05 27.35 1153.18 29.33 1153.18 C30.06 1153.18
								 30.79 1153.03 31.49 1152.71 L38.77 1149.4 C39.39 1149.11 39.67 1148.36 39.39 1147.75 C39.11 1147.13
								 38.36 1146.85 37.74 1147.13 L30.46 1150.45 C29.09 1151.07 27.46 1150.47 26.83 1149.09 C26.21 1147.72
								 26.82 1146.09 28.19 1145.47 L39.85 1140.16 L53.71 1141.35 C53.75 1141.36 53.78 1141.36 53.82 1141.36
								 C54.12 1141.36 54.41 1141.25 54.64 1141.05 L55.82 1140 L72.44 1156.4 L69.18 1159.8 Z" class="st13"/>
				</g>
			</g>
			<g id="shape116-170" v:mID="116" v:groupContext="shape" transform="translate(10.5287,-3.03712)">
				<title>Sheet.116</title>
				<desc>Framework Agreement</desc>
				<v:textBlock v:margins="rect(4,4,4,4)" v:tabSpace="42.5197"/>
				<v:textRect cx="42.5197" cy="1169.29" width="85.04" height="42.5197"/>
				<rect x="0" y="1148.03" width="85.0394" height="42.5197" class="st9"/>
				<text x="5.49" y="1164.49" class="st14" v:langID="2057"><v:paragraph v:horizAlign="1"/><v:tabList/>Framework <tspan
							x="6.12" dy="1.2em" class="st11">Agreement</tspan></text>			</g>
		</g>
		<g id="group117-174" transform="translate(1274.58,-626.659)" v:mID="117" v:groupContext="group">
			<v:custProps>
				<v:cp v:nameU="pagelink" v:lbl="active shape" v:type="0" v:langID="2057" v:val="VT4(0002.svg)"/>
			</v:custProps>
			<title>Sheet.117</title>
			<g id="shape118-175" v:mID="118" v:groupContext="shape">
				<title>Sheet.118</title>
				<rect x="0" y="1048.82" width="107.717" height="141.732" class="st12"/>
			</g>
			<g id="group119-177" transform="translate(11.3344,-51.6793)" v:mID="119" v:groupContext="group">
				<title>Sheet.119</title>
				<g id="group120-178" v:mID="120" v:groupContext="group">
					<title>Sheet.120</title>
					<g id="shape121-179" v:mID="121" v:groupContext="shape" transform="translate(66.5996,-44.7229)">
						<title>Sheet.121</title>
						<path d="M0.44 1189.94 C0.88 1190.48 1.68 1190.55 2.21 1190.11 L4.87 1187.92 C5.21 1188.07 5.6 1188.16 6
									 1188.16 C7.55 1188.16 8.8 1186.9 8.8 1185.35 C8.8 1184.26 8.17 1183.31 7.25 1182.85 L7.25 1180.5
									 C7.25 1179.81 6.69 1179.25 6 1179.25 C5.31 1179.25 4.75 1179.81 4.75 1180.5 L4.75 1182.85 C3.83
									 1183.31 3.2 1184.26 3.2 1185.35 C3.2 1185.57 3.22 1185.78 3.27 1185.98 L0.61 1188.18 C0.08 1188.62
									 0 1189.41 0.44 1189.94 Z" class="st15"/>
					</g>
					<g id="shape122-181" v:mID="122" v:groupContext="shape">
						<title>Sheet.122</title>
						<path d="M82.79 1180.97 L81 1180.97 L81 1177.88 C81 1176.63 79.99 1175.62 78.74 1175.62 L78.02 1175.62 L78.02
									 1172.77 C78.02 1171.52 77 1170.51 75.76 1170.51 L73.85 1170.51 L73.85 1153.01 C80.13 1152.38
									 85.05 1147.07 85.05 1140.63 C85.05 1139.92 84.99 1139.21 84.87 1138.52 C84.75 1137.84 84.1 1137.38
									 83.42 1137.5 C82.74 1137.61 82.28 1138.26 82.4 1138.94 C82.49 1139.5 82.54 1140.06 82.54 1140.63
									 C82.54 1146.11 78.08 1150.57 72.6 1150.57 C67.12 1150.57 62.66 1146.11 62.66 1140.63 C62.66
									 1135.15 67.12 1130.69 72.6 1130.69 C75.37 1130.69 77.94 1131.8 79.84 1133.82 C80.32 1134.33
									 81.11 1134.35 81.61 1133.88 C82.12 1133.4 82.14 1132.61 81.67 1132.1 C79.32 1129.61 76.02 1128.18
									 72.6 1128.18 C65.74 1128.18 60.15 1133.77 60.15 1140.63 C60.15 1147.07 65.07 1152.38 71.35 1153.01
									 L71.35 1170.51 L69.44 1170.51 C68.2 1170.51 67.18 1171.52 67.18 1172.77 L67.18 1175.62 L66.46
									 1175.62 C65.21 1175.62 64.2 1176.63 64.2 1177.88 L64.2 1180.97 L59.69 1180.97 C60.67 1179.41
									 61.21 1177.6 61.21 1175.73 C61.21 1173.77 60.63 1171.88 59.53 1170.26 L50.38 1156.79 C48.14
									 1153.5 45.33 1150.71 42.13 1148.54 L42.13 1117.07 C42.13 1114.07 39.69 1111.63 36.7 1111.63
									 L2.26 1111.63 C1.01 1111.63 0 1112.65 0 1113.89 L0 1126.76 C0 1127.45 0.56 1128.02 1.25 1128.02
									 C1.95 1128.02 2.51 1127.45 2.51 1126.76 L2.51 1125.83 C13.03 1126.71 22.02 1133.41 25.88 1143.19
									 C25.47 1143.17 25.06 1143.16 24.64 1143.16 L2.51 1143.16 L2.51 1132.96 C2.51 1132.27 1.95 1131.71
									 1.25 1131.71 C0.56 1131.71 0 1132.27 0 1132.96 L0 1188.29 C0 1189.54 1.01 1190.55 2.26 1190.55
									 L64.96 1190.55 C65.65 1190.55 66.21 1189.99 66.21 1189.3 C66.21 1188.6 65.65 1188.04 64.96 1188.04
									 L2.51 1188.04 L2.51 1183.47 L82.54 1183.47 L82.54 1188.04 L71.06 1188.04 C70.36 1188.04 69.8
									 1188.6 69.8 1189.3 C69.8 1189.99 70.36 1190.55 71.06 1190.55 L82.79 1190.55 C84.04 1190.55 85.05
									 1189.54 85.05 1188.29 L85.05 1183.22 C85.05 1181.98 84.04 1180.97 82.79 1180.97 ZM69.69 1173.02
									 L75.51 1173.02 L75.51 1175.62 L69.69 1175.62 L69.69 1173.02 ZM66.71 1178.13 L78.49 1178.13 L78.49
									 1180.97 L66.71 1180.97 L66.71 1178.13 ZM56.07 1169.62 L50.27 1169.62 C49.08 1169.62 47.96 1169.04
									 47.28 1168.06 L41.3 1159.5 C40.96 1159.02 41.14 1158.55 41.23 1158.38 C41.32 1158.2 41.6 1157.79
									 42.19 1157.79 L48.02 1157.79 C48.12 1157.93 56.07 1169.62 56.07 1169.62 ZM18.62 1129.52 C13.95
									 1125.91 8.39 1123.76 2.51 1123.31 L2.51 1114.14 L36.7 1114.14 C38.31 1114.14 39.62 1115.45 39.62
									 1117.07 L39.62 1147 C36.24 1145.15 32.53 1143.92 28.64 1143.42 C26.71 1137.91 23.26 1133.12
									 18.62 1129.52 ZM27.77 1157.79 C28.64 1157.79 29.35 1158.5 29.35 1159.38 L29.35 1168.04 C29.35
									 1168.91 28.64 1169.62 27.77 1169.62 L16.68 1169.62 L16.68 1157.79 L27.77 1157.79 ZM14.18 1169.62
									 L2.51 1169.62 L2.51 1157.79 L14.18 1157.79 L14.18 1169.62 ZM2.51 1172.13 L27.77 1172.13 C30.02
									 1172.13 31.86 1170.29 31.86 1168.04 L31.86 1159.38 C31.86 1157.12 30.02 1155.28 27.77 1155.28
									 L2.51 1155.28 L2.51 1145.67 L24.64 1145.67 C32.89 1145.67 40.65 1149.21 46.04 1155.28 L42.19
									 1155.28 C40.85 1155.28 39.63 1156.02 39 1157.22 C38.38 1158.41 38.47 1159.84 39.24 1160.94 L45.22
									 1169.5 C46.37 1171.15 48.26 1172.13 50.27 1172.13 L57.75 1172.13 C58.38 1173.23 58.71 1174.46
									 58.71 1175.73 C58.71 1177.7 57.89 1179.61 56.47 1180.97 L2.51 1180.97 L2.51 1172.13 Z"
								class="st15"/>
					</g>
				</g>
			</g>
			<g id="shape123-183" v:mID="123" v:groupContext="shape" transform="translate(4.24783,-10.1237)">
				<title>Sheet.123</title>
				<desc>Completion Certification</desc>
				<v:textBlock v:margins="rect(4,4,4,4)" v:tabSpace="42.5197"/>
				<v:textRect cx="49.6104" cy="1169.29" width="99.23" height="42.5197"/>
				<rect x="0" y="1148.03" width="99.2209" height="42.5197" class="st9"/>
				<text x="11.78" y="1164.49" class="st14" v:langID="2057"><v:paragraph v:horizAlign="1"/><v:tabList/>Completion <tspan
							x="9.63" dy="1.2em" class="st11">Certification</tspan></text>			</g>
		</g>
		<a
				xlink:href="https://isosolutionsinfo.sharepoint.com/:u:/s/MajorProjectIMS/Ef1DXHKB_WhAuE6jvlPCiCYB7s3nDYwGC6Hg5Zh5qmFrdQ?e=3Hf6aj">
			<g id="group124-187" transform="translate(1193.39,-846.163)" v:mID="124" v:groupContext="group">
				<title>Sheet.124</title>
				<g id="shape125-188" v:mID="125" v:groupContext="shape">
					<title>Sheet.125</title>
					<rect x="0" y="1048.82" width="107.717" height="141.732" class="st12"/>
				</g>
				<g id="shape126-190" v:mID="126" v:groupContext="shape" transform="translate(-2.83465,-3.03712)">
					<title>Sheet.126</title>
					<desc>Governance and support</desc>
					<v:textBlock v:margins="rect(4,4,4,4)" v:tabSpace="42.5197"/>
					<v:textRect cx="53.8583" cy="1169.29" width="107.72" height="42.5197"/>
					<rect x="0" y="1148.03" width="107.717" height="42.5197" class="st9"/>
					<text x="14.61" y="1164.49" class="st14" v:langID="2057"><v:paragraph v:horizAlign="1"/><v:tabList/>Governance <tspan
								x="14.39" dy="1.2em" class="st11">and support</tspan></text>				</g>
				<g id="group127-194" transform="translate(10.5204,-45.1623)" v:mID="127" v:groupContext="group">
					<title>Sheet.127</title>
					<g id="group128-195" v:mID="128" v:groupContext="group">
						<title>XMLID_144_</title>
						<g id="shape129-196" v:mID="129" v:groupContext="shape" transform="translate(27.7173,-47.0303)">
							<title>XMLID_149_</title>
							<path d="M1.67 1183.76 C0.75 1183.76 0 1184.51 0 1185.43 L0 1188.88 C0 1189.8 0.75 1190.55 1.67 1190.55
										 C2.59 1190.55 3.34 1189.8 3.34 1188.88 L3.34 1185.43 C3.34 1184.51 2.59 1183.76 1.67 1183.76
										 Z" class="st16"/>
						</g>
						<g id="shape130-198" v:mID="130" v:groupContext="shape" transform="translate(34.3962,-47.0303)">
							<title>XMLID_666_</title>
							<path d="M1.67 1183.76 C0.75 1183.76 0 1184.51 0 1185.43 L0 1188.88 C0 1189.8 0.75 1190.55 1.67 1190.55
										 C2.59 1190.55 3.34 1189.8 3.34 1188.88 L3.34 1185.43 C3.34 1184.51 2.59 1183.76 1.67 1183.76
										 Z" class="st16"/>
						</g>
						<g id="shape131-200" v:mID="131" v:groupContext="shape" transform="translate(41.0751,-47.0303)">
							<title>XMLID_1082_</title>
							<path d="M1.67 1183.76 C0.75 1183.76 0 1184.51 0 1185.43 L0 1188.88 C0 1189.8 0.75 1190.55 1.67 1190.55
										 C2.59 1190.55 3.34 1189.8 3.34 1188.88 L3.34 1185.43 C3.34 1184.51 2.59 1183.76 1.67 1183.76
										 Z" class="st16"/>
						</g>
						<g id="shape132-202" v:mID="132" v:groupContext="shape" transform="translate(47.754,-47.0303)">
							<title>XMLID_1380_</title>
							<path d="M1.67 1183.76 C0.75 1183.76 0 1184.51 0 1185.43 L0 1188.88 C0 1189.8 0.75 1190.55 1.67 1190.55
										 C2.59 1190.55 3.34 1189.8 3.34 1188.88 L3.34 1185.43 C3.34 1184.51 2.59 1183.76 1.67 1183.76
										 Z" class="st16"/>
						</g>
						<g id="shape133-204" v:mID="133" v:groupContext="shape" transform="translate(54.4328,-47.0303)">
							<title>XMLID_1437_</title>
							<path d="M1.67 1183.76 C0.75 1183.76 0 1184.51 0 1185.43 L0 1188.88 C0 1189.8 0.75 1190.55 1.67 1190.55
										 C2.59 1190.55 3.34 1189.8 3.34 1188.88 L3.34 1185.43 C3.34 1184.51 2.59 1183.76 1.67 1183.76
										 Z" class="st16"/>
						</g>
						<g id="shape134-206" v:mID="134" v:groupContext="shape" transform="translate(17.699,-6.62328)">
							<title>XMLID_1438_</title>
							<path d="M1.67 1187.21 C1.23 1187.21 0.8 1187.39 0.49 1187.7 C0.18 1188.01 0 1188.44 0 1188.88 C0 1189.32
										 0.18 1189.75 0.49 1190.06 C0.8 1190.37 1.23 1190.55 1.67 1190.55 C2.11 1190.55 2.54 1190.37
										 2.85 1190.06 C3.16 1189.75 3.34 1189.32 3.34 1188.88 C3.34 1188.44 3.16 1188.01 2.85 1187.7
										 C2.54 1187.39 2.11 1187.21 1.67 1187.21 Z" class="st16"/>
						</g>
						<g id="shape135-208" v:mID="135" v:groupContext="shape" transform="translate(17.699,-13.1936)">
							<title>XMLID_1439_</title>
							<path d="M1.67 1179.98 C0.75 1179.98 0 1180.73 0 1181.65 L0 1188.88 C0 1189.8 0.75 1190.55 1.67 1190.55
										 C2.59 1190.55 3.34 1189.8 3.34 1188.88 L3.34 1181.65 C3.34 1180.73 2.59 1179.98 1.67 1179.98
										 Z" class="st16"/>
						</g>
						<g id="shape136-210" v:mID="136" v:groupContext="shape" transform="translate(27.0495,-6.62311)">
							<title>XMLID_1455_</title>
							<path d="M1.67 1173.41 C0.75 1173.41 0 1174.16 0 1175.08 L0 1188.88 C0 1189.8 0.75 1190.55 1.67 1190.55
										 C2.59 1190.55 3.34 1189.8 3.34 1188.88 L3.34 1175.08 C3.34 1174.16 2.59 1173.41 1.67 1173.41
										 Z" class="st16"/>
						</g>
						<g id="shape137-212" v:mID="137" v:groupContext="shape" transform="translate(36.3999,-6.62311)">
							<title>XMLID_1456_</title>
							<path d="M1.67 1173.41 C0.75 1173.41 0 1174.16 0 1175.08 L0 1188.88 C0 1189.8 0.75 1190.55 1.67 1190.55
										 C2.59 1190.55 3.34 1189.8 3.34 1188.88 L3.34 1175.08 C3.34 1174.16 2.59 1173.41 1.67 1173.41
										 Z" class="st16"/>
						</g>
						<g id="shape138-214" v:mID="138" v:groupContext="shape" transform="translate(45.7503,-6.62311)">
							<title>XMLID_1471_</title>
							<path d="M1.67 1173.41 C0.75 1173.41 0 1174.16 0 1175.08 L0 1188.88 C0 1189.8 0.75 1190.55 1.67 1190.55
										 C2.59 1190.55 3.34 1189.8 3.34 1188.88 L3.34 1175.08 C3.34 1174.16 2.59 1173.41 1.67 1173.41
										 Z" class="st16"/>
						</g>
						<g id="shape139-216" v:mID="139" v:groupContext="shape" transform="translate(55.1007,-6.62311)">
							<title>XMLID_1480_</title>
							<path d="M1.67 1173.41 C0.75 1173.41 0 1174.16 0 1175.08 L0 1188.88 C0 1189.8 0.75 1190.55 1.67 1190.55
										 C2.59 1190.55 3.34 1189.8 3.34 1188.88 L3.34 1175.08 C3.34 1174.16 2.59 1173.41 1.67 1173.41
										 Z" class="st16"/>
						</g>
						<g id="shape140-218" v:mID="140" v:groupContext="shape" transform="translate(64.4512,-20.4268)">
							<title>XMLID_1584_</title>
							<path d="M1.67 1187.21 C1.23 1187.21 0.8 1187.39 0.49 1187.7 C0.18 1188.01 0 1188.44 0 1188.88 C0 1189.32
										 0.18 1189.75 0.49 1190.06 C0.8 1190.37 1.23 1190.55 1.67 1190.55 C2.11 1190.55 2.54 1190.37
										 2.85 1190.06 C3.16 1189.75 3.34 1189.32 3.34 1188.88 C3.34 1188.44 3.16 1188.01 2.85 1187.7
										 C2.54 1187.39 2.11 1187.21 1.67 1187.21 Z" class="st16"/>
						</g>
						<g id="shape141-220" v:mID="141" v:groupContext="shape" transform="translate(64.4512,-6.62311)">
							<title>XMLID_1585_</title>
							<path d="M1.67 1180.09 C0.75 1180.09 0 1180.84 0 1181.76 L0 1188.88 C0 1189.8 0.75 1190.55 1.67 1190.55
										 C2.59 1190.55 3.34 1189.8 3.34 1188.88 L3.34 1181.76 C3.34 1180.84 2.59 1180.09 1.67 1180.09
										 Z" class="st16"/>
						</g>
						<g id="shape142-222" v:mID="142" v:groupContext="shape" transform="translate(24.3779,-33.0882)">
							<title>XMLID_1598_</title>
							<path d="M1.67 1183.76 C0.75 1183.76 0 1184.51 0 1185.43 L0 1188.88 C0 1189.8 0.75 1190.55 1.67 1190.55
										 C2.59 1190.55 3.34 1189.8 3.34 1188.88 L3.34 1185.43 C3.34 1184.51 2.59 1183.76 1.67 1183.76
										 Z" class="st16"/>
						</g>
						<g id="shape143-224" v:mID="143" v:groupContext="shape" transform="translate(31.0568,-33.0882)">
							<title>XMLID_1599_</title>
							<path d="M1.67 1183.76 C0.75 1183.76 0 1184.51 0 1185.43 L0 1188.88 C0 1189.8 0.75 1190.55 1.67 1190.55
										 C2.59 1190.55 3.34 1189.8 3.34 1188.88 L3.34 1185.43 C3.34 1184.51 2.59 1183.76 1.67 1183.76
										 Z" class="st16"/>
						</g>
						<g id="shape144-226" v:mID="144" v:groupContext="shape" transform="translate(37.7357,-33.0882)">
							<title>XMLID_1600_</title>
							<path d="M1.67 1183.76 C0.75 1183.76 0 1184.51 0 1185.43 L0 1188.88 C0 1189.8 0.75 1190.55 1.67 1190.55
										 C2.59 1190.55 3.34 1189.8 3.34 1188.88 L3.34 1185.43 C3.34 1184.51 2.59 1183.76 1.67 1183.76
										 Z" class="st16"/>
						</g>
						<g id="shape145-228" v:mID="145" v:groupContext="shape" transform="translate(44.4145,-33.0882)">
							<title>XMLID_1601_</title>
							<path d="M1.67 1183.76 C0.75 1183.76 0 1184.51 0 1185.43 L0 1188.88 C0 1189.8 0.75 1190.55 1.67 1190.55
										 C2.59 1190.55 3.34 1189.8 3.34 1188.88 L3.34 1185.43 C3.34 1184.51 2.59 1183.76 1.67 1183.76
										 Z" class="st16"/>
						</g>
						<g id="shape146-230" v:mID="146" v:groupContext="shape" transform="translate(51.0934,-33.0882)">
							<title>XMLID_1602_</title>
							<path d="M1.67 1183.76 C0.75 1183.76 0 1184.51 0 1185.43 L0 1188.88 C0 1189.8 0.75 1190.55 1.67 1190.55
										 C2.59 1190.55 3.34 1189.8 3.34 1188.88 L3.34 1185.43 C3.34 1184.51 2.59 1183.76 1.67 1183.76
										 Z" class="st16"/>
						</g>
						<g id="shape147-232" v:mID="147" v:groupContext="shape" transform="translate(57.7723,-33.0882)">
							<title>XMLID_1604_</title>
							<path d="M1.67 1183.76 C0.75 1183.76 0 1184.51 0 1185.43 L0 1188.88 C0 1189.8 0.75 1190.55 1.67 1190.55
										 C2.59 1190.55 3.34 1189.8 3.34 1188.88 L3.34 1185.43 C3.34 1184.51 2.59 1183.76 1.67 1183.76
										 Z" class="st16"/>
						</g>
						<g id="shape148-234" v:mID="148" v:groupContext="shape">
							<title>XMLID_1608_</title>
							<path d="M83.82 1164.5 L77.14 1164.5 L77.14 1160.83 C77.14 1159.91 76.39 1159.16 75.47 1159.16 L67.79
										 1159.16 L67.79 1147.81 L68.96 1147.81 C69.88 1147.81 70.63 1147.06 70.63 1146.14 C70.63
										 1145.21 69.88 1144.47 68.96 1144.47 L64.28 1144.47 L64.28 1135.78 C65.13 1135.69 65.79 1134.98
										 65.79 1134.11 C65.79 1133.19 65.04 1132.44 64.12 1132.44 L62.61 1132.44 L60 1132.44 L60
										 1131 C60 1122.05 53.15 1114.67 44.41 1113.83 L44.41 1106.79 C44.41 1105.87 43.67 1105.12
										 42.74 1105.12 C41.82 1105.12 41.08 1105.87 41.08 1106.79 L41.08 1113.83 C32.34 1114.67 25.49
										 1122.05 25.49 1131 L25.49 1132.44 L22.88 1132.44 L21.37 1132.44 C20.45 1132.44 19.7 1133.19
										 19.7 1134.11 C19.7 1134.98 20.36 1135.69 21.21 1135.78 L21.21 1144.47 L16.53 1144.47 C15.61
										 1144.47 14.86 1145.21 14.86 1146.14 C14.86 1147.06 15.61 1147.81 16.53 1147.81 L17.7 1147.81
										 L17.7 1159.16 L10.02 1159.16 C9.1 1159.16 8.35 1159.91 8.35 1160.83 L8.35 1164.5 L1.67 1164.5
										 C0.75 1164.5 0 1165.25 0 1166.17 L0 1188.88 C0 1189.8 0.75 1190.55 1.67 1190.55 L83.82 1190.55
										 C84.74 1190.55 85.49 1189.8 85.49 1188.88 L85.49 1166.17 C85.49 1165.25 84.74 1164.5 83.82
										 1164.5 ZM28.83 1131 C28.83 1123.33 35.07 1117.08 42.74 1117.08 C50.42 1117.08 56.66 1123.33
										 56.66 1131 L56.66 1132.44 L28.83 1132.44 L28.83 1131 ZM24.54 1135.78 L27.16 1135.78 L58.33
										 1135.78 L60.94 1135.78 L60.94 1144.47 L24.54 1144.47 L24.54 1135.78 ZM21.04 1147.81 L64.45
										 1147.81 L64.45 1159.16 L21.04 1159.16 L21.04 1147.81 ZM3.34 1167.84 L8.35 1167.84 L8.35
										 1187.21 L3.34 1187.21 L3.34 1167.84 ZM11.69 1166.17 L11.69 1162.5 L73.8 1162.5 L73.8 1166.17
										 L73.8 1187.21 L11.69 1187.21 L11.69 1166.17 ZM82.15 1187.21 L77.14 1187.21 L77.14 1167.84
										 L82.15 1167.84 L82.15 1187.21 Z" class="st16"/>
						</g>
					</g>
				</g>
			</g>
		</a>
		<a
				xlink:href="https://isosolutionsinfo.sharepoint.com/:u:/s/MajorProjectIMS/EX2HPrt4DQ9NjxzeWJXa648BZOGqFEns5YA66HnE8nnyiw?e=37cR6g">
			<g id="group149-236" transform="translate(1388.98,-892.913)" v:mID="149" v:groupContext="group">
				<title>Sheet.149</title>
				<g id="shape150-237" v:mID="150" v:groupContext="shape">
					<title>Sheet.150</title>
					<rect x="0" y="1048.82" width="107.717" height="141.732" class="st12"/>
				</g>
				<g id="shape151-239" v:mID="151" v:groupContext="shape" transform="translate(10.5287,-3.03712)">
					<title>Sheet.151</title>
					<desc>Design</desc>
					<v:textBlock v:margins="rect(4,4,4,4)" v:tabSpace="42.5197"/>
					<v:textRect cx="42.5197" cy="1169.29" width="85.04" height="42.5197"/>
					<rect x="0" y="1148.03" width="85.0394" height="42.5197" class="st9"/>
					<text x="20.68" y="1174.09" class="st14" v:langID="2057"><v:paragraph v:horizAlign="1"/><v:tabList/>Design</text>				</g>
				<g id="group152-242" transform="translate(13.9066,-45.0877)" v:mID="152" v:groupContext="group">
					<title>Sheet.152</title>
					<g id="group153-243" v:mID="153" v:groupContext="group">
						<title>Sheet.153</title>
						<g id="shape154-244" v:mID="154" v:groupContext="shape">
							<title>Sheet.154</title>
							<path d="M78.73 1118.4 L42.26 1118.4 L42.26 1111.82 C42.26 1111.17 41.73 1110.65 41.09 1110.65 L33.78
										 1110.65 C33.14 1110.65 32.61 1111.17 32.61 1111.82 L32.61 1118.4 L18.29 1118.4 C17.64 1118.4
										 17.12 1118.93 17.12 1119.57 L17.12 1129.64 C16.35 1130.05 15.61 1130.59 15 1131.21 L15 1127.77
										 C15 1125.65 12.89 1123.91 9.75 1123.33 L9.75 1120.79 C9.75 1120.14 9.22 1119.62 8.58 1119.62
										 C6.5 1119.62 4.4 1120.41 2.8 1121.8 C0.99 1123.37 0 1125.54 0 1127.92 L0 1132.82 C0 1134.33
										 2.34 1134.33 2.34 1132.82 L2.34 1127.92 C2.34 1125.35 4.25 1122.61 7.41 1122.06 L7.41 1166.96
										 C5.57 1167.19 3.69 1167.92 2.35 1169.22 C2.34 1167.62 2.34 1139.04 2.34 1139.04 C2.34 1137.53
										 0 1137.53 0 1139.04 L0 1175.4 C0 1175.46 0.01 1175.53 0.02 1175.59 C0.13 1179.02 3.31 1181.59
										 7.5 1181.59 C9.53 1181.59 11.34 1181.01 12.68 1180.06 L12.68 1184.36 C12.68 1188.32 16.64
										 1190.55 20.18 1190.55 C23.94 1190.55 27.68 1188.43 27.68 1184.36 L27.67 1167.81 L61.01 1167.81
										 L36.72 1188.49 C35.91 1189.18 36.41 1190.55 37.48 1190.55 L72.73 1190.55 C73.37 1190.55
										 73.9 1190.03 73.9 1189.38 L73.9 1183.7 C73.9 1182.19 71.56 1182.19 71.56 1183.7 L71.56 1188.21
										 L40.66 1188.21 L71.56 1161.9 L71.56 1177.25 C71.56 1178.76 73.9 1178.76 73.9 1177.25 L73.9
										 1167.81 L78.73 1167.81 C79.38 1167.81 79.9 1167.29 79.9 1166.64 L79.9 1150.3 L79.9 1119.57
										 C79.9 1118.93 79.38 1118.4 78.73 1118.4 ZM77.56 1120.74 L77.56 1149.13 L50.15 1149.13 L50.15
										 1120.74 L77.56 1120.74 ZM39.91 1112.99 L39.91 1142.94 L34.95 1142.94 L34.95 1139.95 L35.8
										 1139.95 C37.32 1139.95 37.32 1137.61 35.8 1137.61 L34.95 1137.61 L34.95 1134.54 L36.9 1134.54
										 C38.41 1134.54 38.41 1132.2 36.9 1132.2 L34.95 1132.2 L34.95 1129.14 L35.8 1129.14 C36.45
										 1129.14 36.97 1128.61 36.97 1127.97 C36.97 1127.32 36.45 1126.8 35.8 1126.8 L34.95 1126.8
										 L34.95 1123.73 L36.9 1123.73 C38.41 1123.73 38.41 1121.39 36.9 1121.39 L34.95 1121.39 L34.95
										 1118.32 L35.8 1118.32 C37.32 1118.32 37.32 1115.98 35.8 1115.98 L34.95 1115.98 L34.95 1112.99
										 L39.91 1112.99 ZM18.49 1131.53 C18.99 1131.29 19.52 1131.12 20.08 1131.02 L20.08 1175.92
										 C18.78 1176.09 16.67 1176.6 15.02 1178.18 C15.02 1176.61 15.02 1175.39 15.02 1175.36 L15.01
										 1136.88 C15.01 1134.78 16.29 1132.56 18.49 1131.53 ZM25.34 1180.94 C25.3 1180.92 25.26 1180.9
										 25.22 1180.88 C23.87 1180.14 22.12 1179.73 20.27 1179.72 L20.27 1178.26 C20.83 1178.18 21.21
										 1178.19 21.22 1178.19 C21.95 1178.14 22.35 1177.75 22.42 1177.02 L22.42 1134.69 C23.97 1135.08
										 25.33 1135.87 25.33 1136.74 L25.34 1180.94 ZM12.66 1127.77 L12.66 1166.4 L12.66 1171.96
										 C11.35 1171.22 9.59 1170.76 7.59 1170.75 L7.59 1169.3 C8.15 1169.22 8.53 1169.22 8.54 1169.22
										 C9.27 1169.18 9.67 1168.79 9.75 1168.05 L9.75 1125.72 C11.53 1126.15 12.66 1127.04 12.66
										 1127.77 ZM12.66 1175.95 C12.66 1177.74 10.29 1179.25 7.5 1179.25 C4.56 1179.25 2.35 1177.59
										 2.35 1175.4 C2.35 1173.17 3.16 1171.07 5.25 1170 L5.25 1171.97 C5.33 1172.74 5.76 1173.13
										 6.53 1173.14 C8.16 1172.98 9.96 1173.17 11.41 1173.96 C12.25 1174.43 12.72 1175.01 12.66
										 1175.95 ZM20.18 1188.21 C20.18 1188.21 20.18 1188.21 20.18 1188.21 C17.25 1188.21 15.03
										 1186.56 15.03 1184.36 C15.03 1182.14 15.84 1180.03 17.93 1178.97 L17.93 1180.94 C18.01 1181.7
										 18.44 1182.09 19.21 1182.1 C21.2 1181.92 25.43 1182.23 25.34 1184.91 C25.34 1186.7 22.97
										 1188.21 20.18 1188.21 ZM27.67 1136.74 C27.67 1134.63 25.55 1132.88 22.42 1132.29 L22.42
										 1129.75 C22.35 1129.04 21.96 1128.65 21.25 1128.58 C20.65 1128.58 20.05 1128.65 19.46 1128.78
										 L19.46 1120.74 L32.61 1120.74 L32.61 1144.11 C32.61 1144.76 33.14 1145.28 33.78 1145.28
										 L41.09 1145.28 C41.73 1145.28 42.26 1144.76 42.26 1144.11 L42.26 1120.74 L47.81 1120.74
										 L47.81 1150.3 L47.81 1165.47 L27.67 1165.47 L27.67 1136.74 ZM73.22 1158.31 C72.8 1158.12
										 72.32 1158.18 71.97 1158.48 L63.76 1165.47 L50.15 1165.47 L50.15 1151.47 L77.56 1151.47
										 L77.56 1165.47 L73.9 1165.47 L73.9 1159.37 C73.9 1158.91 73.63 1158.5 73.22 1158.31 Z"
									class="st16"/>
						</g>
						<g id="shape155-246" v:mID="155" v:groupContext="shape" transform="translate(54.5962,-46.3631)">
							<title>Sheet.155</title>
							<path d="M1.17 1190.55 L11.96 1190.55 C12.26 1190.55 12.57 1190.43 12.78 1190.21 L18.18 1184.82 C18.4
										 1184.6 18.52 1184.3 18.52 1183.99 L18.52 1173.22 C18.52 1172.59 17.98 1172.05 17.35 1172.05
										 L6.56 1172.05 C6.25 1172.05 5.95 1172.18 5.73 1172.4 L0.34 1177.78 C0.13 1178 0 1178.3 0
										 1178.61 L0 1189.38 C0 1190.03 0.52 1190.55 1.17 1190.55 ZM2.34 1179.78 L10.78 1179.78 L10.78
										 1188.21 L2.34 1188.21 L2.34 1179.78 ZM13.13 1186.56 L13.13 1179.1 L16.18 1176.05 L16.18
										 1183.51 L13.13 1186.56 ZM7.05 1174.39 L14.52 1174.39 L11.47 1177.44 L4 1177.44 L7.05 1174.39
										 Z" class="st16"/>
						</g>
						<g id="shape156-248" v:mID="156" v:groupContext="shape" transform="translate(55.9112,-28.5456)">
							<title>Sheet.156</title>
							<path d="M5.39 1188.21 L1.51 1188.21 C0 1188.21 0 1190.55 1.51 1190.55 L5.39 1190.55 C6.9 1190.55 6.9
										 1188.21 5.39 1188.21 Z" class="st16"/>
						</g>
						<g id="shape157-250" v:mID="157" v:groupContext="shape" transform="translate(55.9112,-33.2032)">
							<title>Sheet.157</title>
							<path d="M11.45 1188.21 L1.51 1188.21 C0 1188.21 0 1190.55 1.51 1190.55 L11.45 1190.55 C12.96 1190.55
										 12.96 1188.21 11.45 1188.21 Z" class="st16"/>
						</g>
						<g id="shape158-252" v:mID="158" v:groupContext="shape" transform="translate(51.3396,-5.67781)">
							<title>Sheet.158</title>
							<path d="M14.94 1176.46 L0.81 1188.49 C0 1189.18 0.5 1190.55 1.57 1190.55 L15.7 1190.55 C16.35 1190.55
										 16.87 1190.03 16.87 1189.38 L16.87 1177.35 C16.87 1176.46 15.75 1175.77 14.94 1176.46 ZM14.53
										 1188.21 L4.75 1188.21 L14.53 1179.88 L14.53 1188.21 Z" class="st16"/>
						</g>
					</g>
				</g>
			</g>
		</a>
		<a
				xlink:href="https://isosolutionsinfo.sharepoint.com/:u:/s/MajorProjectIMS/EcuuxC64p4NFod_V8zlT47kBZASBkAOQPO5T6KB9medOig?e=OJawHj">
			<g id="group159-254" transform="translate(1388.98,-741.484)" v:mID="159" v:groupContext="group">
				<title>Sheet.159</title>
				<g id="shape160-255" v:mID="160" v:groupContext="shape">
					<title>Sheet.160</title>
					<rect x="0" y="1048.82" width="107.717" height="141.732" class="st12"/>
				</g>
				<g id="shape161-257" v:mID="161" v:groupContext="shape" transform="translate(2.39808E-013,-3.03712)">
					<title>Sheet.161</title>
					<desc>Construction</desc>
					<v:textBlock v:margins="rect(4,4,4,4)" v:tabSpace="42.5197"/>
					<v:textRect cx="53.8583" cy="1169.29" width="107.72" height="42.5197"/>
					<rect x="0" y="1148.03" width="107.717" height="42.5197" class="st9"/>
					<text x="12.05" y="1174.09" class="st14" v:langID="2057"><v:paragraph v:horizAlign="1"/><v:tabList/>Construction</text>				</g>
				<g id="group162-260" transform="translate(17.892,-48.5939)" v:mID="162" v:groupContext="group">
					<title>Sheet.162</title>
					<g id="group163-261" v:mID="163" v:groupContext="group">
						<title>Sheet.163</title>
						<g id="shape164-262" v:mID="164" v:groupContext="shape" transform="translate(13.9224,-2.3204)">
							<title>Sheet.164</title>
							<path d="M6.96 1187.07 C6.96 1185.15 5.4 1183.59 3.48 1183.59 C1.56 1183.59 0 1185.15 0 1187.07 C0 1188.99
										 1.56 1190.55 3.48 1190.55 C5.4 1190.55 6.96 1188.99 6.96 1187.07 ZM3.48 1188.23 C2.84 1188.23
										 2.32 1187.71 2.32 1187.07 C2.32 1186.43 2.84 1185.91 3.48 1185.91 C4.12 1185.91 4.64 1186.43
										 4.64 1187.07 C4.64 1187.71 4.12 1188.23 3.48 1188.23 Z" class="st17"/>
						</g>
						<g id="shape165-264" v:mID="165" v:groupContext="shape" transform="translate(25.5244,-2.3204)">
							<title>Sheet.165</title>
							<path d="M6.96 1187.07 C6.96 1185.15 5.4 1183.59 3.48 1183.59 C1.56 1183.59 0 1185.15 0 1187.07 C0 1188.99
										 1.56 1190.55 3.48 1190.55 C5.4 1190.55 6.96 1188.99 6.96 1187.07 ZM3.48 1188.23 C2.84 1188.23
										 2.32 1187.71 2.32 1187.07 C2.32 1186.43 2.84 1185.91 3.48 1185.91 C4.12 1185.91 4.64 1186.43
										 4.64 1187.07 C4.64 1187.71 4.12 1188.23 3.48 1188.23 Z" class="st17"/>
						</g>
						<g id="shape166-266" v:mID="166" v:groupContext="shape" transform="translate(46.4081,-51.0489)">
							<title>Sheet.166</title>
							<path d="M0 1190.55 L9.28 1190.55 L9.28 1183.59 L0 1183.59 L0 1190.55 ZM2.32 1185.91 L6.96 1185.91 L6.96
										 1188.23 L2.32 1188.23 L2.32 1185.91 Z" class="st17"/>
						</g>
						<g id="shape167-268" v:mID="167" v:groupContext="shape">
							<title>Sheet.167</title>
							<path d="M60.12 1141.82 L71.93 1141.82 L71.93 1130.22 L68.85 1130.22 L53.76 1118.62 L48.53 1118.62 L14.89
										 1130.22 L9.9 1130.22 L4.15 1137.12 C3.72 1137.64 3.48 1138.29 3.48 1138.96 C3.48 1140.54
										 4.76 1141.82 6.35 1141.82 L11.6 1141.82 L11.6 1148.78 L0 1148.78 L0 1160.39 L11.6 1160.39
										 C11.6 1161.67 12.64 1162.71 13.92 1162.71 L16.24 1162.71 C17.52 1162.71 18.56 1161.67 18.56
										 1160.39 L30.17 1160.39 L30.17 1148.78 L18.56 1148.78 L18.56 1141.82 L41.98 1141.82 C42.33
										 1142.81 43.1 1143.58 44.09 1143.93 L44.09 1160.19 L35.5 1165.97 C34.02 1164 31.66 1162.71
										 29.01 1162.71 L22.04 1162.71 C18.85 1162.71 16.24 1165.31 16.24 1168.51 L16.24 1169.67 L5.8
										 1169.67 C2.6 1169.67 0 1172.27 0 1175.47 L0 1181.27 L10.47 1181.27 C9.74 1182.24 9.28 1183.44
										 9.28 1184.75 C9.28 1187.95 11.88 1190.55 15.08 1190.55 L30.17 1190.55 L31.33 1190.55 L58.67
										 1190.55 L59.17 1190.55 L63.81 1190.55 C68.29 1190.55 71.93 1186.91 71.93 1182.43 L71.93
										 1175.47 L71.93 1174.31 L71.93 1173.79 L58.01 1161.5 L58.01 1143.93 C58.99 1143.58 59.77
										 1142.81 60.12 1141.82 ZM51.05 1155.75 C49.14 1155.75 47.47 1156.68 46.41 1158.1 L46.41 1144.14
										 L55.69 1144.14 L55.69 1158.1 C54.63 1156.68 52.95 1155.75 51.05 1155.75 ZM30.17 1178.95
										 L23.2 1178.95 L23.2 1169.67 L29.01 1169.67 C29.65 1169.67 30.17 1170.19 30.17 1170.83 L30.17
										 1178.95 ZM37.13 1181.27 L37.13 1175.84 L44.09 1171.13 L44.09 1185.91 C44.09 1186.72 44.26
										 1187.51 44.58 1188.23 L35.94 1188.23 C36.67 1187.26 37.13 1186.06 37.13 1184.75 C37.13 1183.44
										 36.67 1182.24 35.94 1181.27 L37.13 1181.27 ZM46.41 1185.91 C46.41 1183.99 47.97 1182.43
										 49.89 1182.43 C50.6 1182.43 51.29 1182.65 51.88 1183.06 L53.01 1183.86 L53.6 1182.61 C53.99
										 1181.78 54.79 1181.27 55.69 1181.27 C56.77 1181.27 57.67 1182 57.93 1183.01 L56.11 1186.04
										 C55.84 1186.5 55.69 1187.03 55.69 1187.57 C55.69 1187.8 55.72 1188.02 55.77 1188.23 L47.32
										 1188.23 C46.75 1187.59 46.41 1186.78 46.41 1185.91 ZM59.32 1180.7 C58.96 1180.25 58.51 1179.87
										 58.01 1179.58 L58.01 1172.22 L62.3 1175.73 L59.32 1180.7 ZM55.69 1178.95 C54.32 1178.95
										 53.04 1179.56 52.17 1180.58 C51.45 1180.27 50.68 1180.11 49.89 1180.11 C48.58 1180.11 47.38
										 1180.56 46.41 1181.3 L46.41 1169.57 L49.87 1167.23 C50.25 1167.3 50.65 1167.35 51.05 1167.35
										 C51.36 1167.35 51.65 1167.3 51.94 1167.26 L55.69 1170.32 L55.69 1178.95 ZM51.05 1165.03
										 C49.13 1165.03 47.57 1163.47 47.57 1161.55 C47.57 1159.63 49.13 1158.07 51.05 1158.07 C52.97
										 1158.07 54.53 1159.63 54.53 1161.55 C54.53 1163.47 52.97 1165.03 51.05 1165.03 ZM58.01 1140.66
										 C58.01 1141.3 57.49 1141.82 56.85 1141.82 L45.25 1141.82 C44.61 1141.82 44.09 1141.3 44.09
										 1140.66 L44.09 1131.38 C44.09 1130.74 44.61 1130.22 45.25 1130.22 L56.85 1130.22 C57.49
										 1130.22 58.01 1130.74 58.01 1131.38 L58.01 1140.66 ZM49.53 1120.94 L52.57 1120.94 L55.18
										 1127.9 L46.92 1127.9 L49.53 1120.94 ZM69.61 1139.5 L60.33 1139.5 L60.33 1132.54 L69.61 1132.54
										 L69.61 1139.5 ZM60.12 1130.22 C59.73 1129.14 58.83 1128.3 57.7 1128.02 L55.88 1123.18 L65.04
										 1130.22 L60.12 1130.22 ZM46.78 1121.68 L44.4 1128.02 C43.27 1128.3 42.37 1129.13 41.98 1130.22
										 L22.01 1130.22 L46.78 1121.68 ZM25.52 1133.31 L30.17 1139.5 L20.88 1139.5 L25.52 1133.31
										 ZM18.56 1138.73 L13.92 1132.54 L23.2 1132.54 L18.56 1138.73 ZM27.84 1132.54 L37.13 1132.54
										 L32.49 1138.73 L27.84 1132.54 ZM40.03 1132.54 L41.77 1132.54 L41.77 1139.5 L34.81 1139.5
										 L40.03 1132.54 ZM5.8 1138.96 C5.8 1138.83 5.85 1138.71 5.93 1138.61 L10.99 1132.54 L11.02
										 1132.54 L16.24 1139.5 L6.35 1139.5 C6.04 1139.5 5.8 1139.26 5.8 1138.96 ZM11.6 1151.1 L11.6
										 1153.42 L2.32 1153.42 L2.32 1151.1 L11.6 1151.1 ZM2.32 1158.07 L2.32 1155.75 L11.6 1155.75
										 L11.6 1158.07 L2.32 1158.07 ZM18.56 1158.07 L18.56 1155.75 L27.84 1155.75 L27.84 1158.07
										 L18.56 1158.07 ZM27.84 1151.1 L27.84 1153.42 L18.56 1153.42 L18.56 1151.1 L27.84 1151.1
										 ZM16.24 1160.39 L13.92 1160.39 L13.92 1141.82 L16.24 1141.82 L16.24 1160.39 ZM45.31 1162.17
										 C45.48 1163.74 46.27 1165.12 47.45 1166.06 L37.13 1173.04 L37.13 1170.83 C37.13 1169.84
										 36.94 1168.9 36.62 1168.02 L45.31 1162.17 ZM2.32 1175.47 C2.32 1173.55 3.88 1171.99 5.8
										 1171.99 L18.56 1171.99 L18.56 1168.51 C18.56 1166.59 20.12 1165.03 22.04 1165.03 L29.01
										 1165.03 C32.2 1165.03 34.81 1167.63 34.81 1170.83 L34.81 1178.95 L32.49 1178.95 L32.49 1170.83
										 C32.49 1168.91 30.92 1167.35 29.01 1167.35 L23.2 1167.35 C21.92 1167.35 20.88 1168.39 20.88
										 1169.67 L20.88 1178.95 L15.08 1178.95 L2.32 1178.95 L2.32 1175.47 ZM30.17 1188.23 L29.01
										 1188.23 L17.4 1188.23 L15.08 1188.23 C13.16 1188.23 11.6 1186.67 11.6 1184.75 C11.6 1182.83
										 13.16 1181.27 15.08 1181.27 L17.4 1181.27 L29.01 1181.27 L31.33 1181.27 C33.24 1181.27 34.81
										 1182.83 34.81 1184.75 C34.81 1186.67 33.24 1188.23 31.33 1188.23 L30.17 1188.23 ZM69.61
										 1182.43 C69.61 1185.63 67.01 1188.23 63.81 1188.23 L59.17 1188.23 L58.67 1188.23 C58.3 1188.23
										 58.01 1187.94 58.01 1187.57 C58.01 1187.46 58.04 1187.34 58.1 1187.24 L64.47 1176.63 L69.61
										 1176.63 L69.61 1182.43 ZM64.23 1174.31 L54.4 1166.27 C55.41 1165.55 56.16 1164.51 56.55
										 1163.31 L69.02 1174.31 L64.23 1174.31 Z" class="st17"/>
						</g>
						<g id="shape168-270" v:mID="168" v:groupContext="shape" transform="translate(4.64081,-13.9224)">
							<title>Sheet.168</title>
							<rect x="0" y="1188.23" width="2.3204" height="2.3204" class="st17"/>
						</g>
						<g id="shape169-272" v:mID="169" v:groupContext="shape" transform="translate(9.28161,-13.9224)">
							<title>Sheet.169</title>
							<rect x="0" y="1188.23" width="2.3204" height="2.3204" class="st17"/>
						</g>
						<g id="shape170-274" v:mID="170" v:groupContext="shape" transform="translate(13.9224,-13.9224)">
							<title>Sheet.170</title>
							<rect x="0" y="1188.23" width="2.3204" height="2.3204" class="st17"/>
						</g>
					</g>
				</g>
			</g>
		</a>
		<g id="shape171-276" v:mID="171" v:groupContext="shape" transform="translate(2340.45,-121.407) rotate(63.4349) scale(-1,1)">
			<title>Notched Arrow.171</title>
			<v:userDefs>
				<v:ud v:nameU="visVersion" v:val="VT0(15):26"/>
				<v:ud v:nameU="ArrowType" v:prompt="" v:val="VT0(2):26"/>
			</v:userDefs>
			<path d="M0 1190.55 L11.34 1179.21 L11.34 1184.88 L63.38 1184.88 L57.72 1190.55 L63.38 1196.22 L11.34 1196.22 L11.34
						 1201.89 L0 1190.55 Z" class="st18"/>
		</g>
		<g id="shape172-278" v:mID="172" v:groupContext="shape" transform="translate(2640.34,262.104) rotate(87.2657) scale(-1,1)">
			<title>Notched Arrow.172</title>
			<v:userDefs>
				<v:ud v:nameU="visVersion" v:val="VT0(15):26"/>
				<v:ud v:nameU="ArrowType" v:prompt="" v:val="VT0(2):26"/>
			</v:userDefs>
			<path d="M0 1190.55 L11.34 1179.21 L11.34 1184.88 L29.8 1184.88 L24.13 1190.55 L29.8 1196.22 L11.34 1196.22 L11.34 1201.89
						 L0 1190.55 Z" class="st18"/>
		</g>
		<g id="shape173-280" v:mID="173" v:groupContext="shape" transform="translate(2285.91,1269.77) rotate(-48.0606) scale(1,-1)">
			<title>Notched Arrow.173</title>
			<v:userDefs>
				<v:ud v:nameU="visVersion" v:val="VT0(15):26"/>
				<v:ud v:nameU="ArrowType" v:prompt="" v:val="VT0(2):26"/>
			</v:userDefs>
			<path d="M0 1190.55 L11.34 1179.21 L11.34 1184.88 L46.65 1184.88 L40.98 1190.55 L46.65 1196.22 L11.34 1196.22 L11.34
						 1201.89 L0 1190.55 Z" class="st18"/>
		</g>
		<g id="shape174-282" v:mID="174" v:groupContext="shape" transform="translate(2302.46,766.522) rotate(-61.7858) scale(1,-1)">
			<title>Notched Arrow.174</title>
			<v:userDefs>
				<v:ud v:nameU="visVersion" v:val="VT0(15):26"/>
				<v:ud v:nameU="ArrowType" v:prompt="" v:val="VT0(2):26"/>
			</v:userDefs>
			<path d="M0 1190.55 L11.34 1179.21 L11.34 1184.88 L65.95 1184.88 L60.28 1190.55 L65.95 1196.22 L11.34 1196.22 L11.34
						 1201.89 L0 1190.55 Z" class="st18"/>
		</g>
		<g id="shape175-284" v:mID="175" v:groupContext="shape" transform="translate(2389.32,-538.835) rotate(53.7941) scale(-1,1)">
			<title>Notched Arrow.175</title>
			<v:userDefs>
				<v:ud v:nameU="visVersion" v:val="VT0(15):26"/>
				<v:ud v:nameU="ArrowType" v:prompt="" v:val="VT0(2):26"/>
			</v:userDefs>
			<path d="M0 1190.55 L11.34 1179.21 L11.34 1184.88 L57.59 1184.88 L51.92 1190.55 L57.59 1196.22 L11.34 1196.22 L11.34
						 1201.89 L0 1190.55 Z" class="st18"/>
		</g>
		<g id="group176-286" transform="translate(18,-283.465)" v:mID="176" v:groupContext="group">
			<v:custProps>
				<v:cp v:nameU="popup" v:lbl="active shape" v:type="0" v:langID="2057" v:val="VT4(01)"/>
			</v:custProps>
			<title>popup</title>
			<g id="shape177-287" v:mID="177" v:groupContext="shape">
				<title>Sheet.177</title>
				<rect x="0" y="907.087" width="226.772" height="283.465" class="st19"/>
			</g>
			<g id="shape178-289" v:mID="178" v:groupContext="shape" transform="translate(0,-248.031)">
				<title>Sheet.178</title>
				<desc>Framework Agreement</desc>
				<v:textBlock v:margins="rect(4,10,4,4)" v:tabSpace="42.5197"/>
				<v:textRect cx="113.386" cy="1172.83" width="226.78" height="35.4331"/>
				<rect x="0" y="1155.12" width="226.772" height="35.4331" class="st20"/>
				<text x="66.3" y="1177.63" class="st21" v:langID="2057"><v:paragraph v:horizAlign="2"/><v:tabList/>Framework Agreement</text>			</g>
			<g id="shape179-292" v:mID="179" v:groupContext="shape" transform="translate(34.0157,-165.044)">
				<title>Sheet.179</title>
				<desc>This popup shall provide more information and links to key Co...</desc>
				<v:textBlock v:margins="rect(4,4,4,4)" v:tabSpace="42.5197" v:verticalAlign="0"/>
				<v:textRect cx="89.2913" cy="1152.6" width="178.59" height="75.9006"/>
				<rect x="0" y="1114.65" width="178.583" height="75.9006" class="st9"/>
				<text x="4" y="1133.05" class="st14" v:langID="2057"><v:paragraph/><v:tabList/>This popup shall provide <tspan
							x="4" dy="1.2em" class="st11">more information and </tspan><tspan x="4" dy="1.2em" class="st11">links to key Contact </tspan><tspan
							x="4" dy="1.2em" class="st11">documents </tspan>...</text>			</g>
		</g>
		<g id="shape180-298" v:mID="180" v:groupContext="shape" transform="translate(1320.23,968.001) rotate(127.985)">
			<title>Sheet.180</title>
			<path d="M0 1190.55 L47.41 1190.55" class="st22"/>
		</g>
		<g id="shape181-304" v:mID="181" v:groupContext="shape" transform="translate(1416.27,-490.759) rotate(52.5946)">
			<title>Sheet.181</title>
			<path d="M0 1190.55 L54.12 1190.55" class="st22"/>
		</g>
		<g id="shape182-309" v:mID="182" v:groupContext="shape" transform="translate(855.874,-849.048) rotate(-21.9606)">
			<title>Sheet.182</title>
			<path d="M0 1190.55 L88.21 1190.55" class="st22"/>
		</g>
		<g id="shape183-314" v:mID="183" v:groupContext="shape" transform="translate(1886.37,-732.036) rotate(29.4454)">
			<title>Sheet.183</title>
			<path d="M0 1190.55 L94.37 1190.55" class="st22"/>
		</g>
	</g>
</svg>
