<?xml version="1.0" encoding="UTF-8" standalone="no"?>
<!DOCTYPE svg PUBLIC "-//W3C//DTD SVG 1.1//EN" "http://www.w3.org/Graphics/SVG/1.1/DTD/svg11.dtd">
<!-- Generated by Microsoft Visio, SVG Export 0002.svg 0002 -->
<svg xmlns="http://www.w3.org/2000/svg" xmlns:xlink="http://www.w3.org/1999/xlink" xmlns:ev="http://www.w3.org/2001/xml-events"
		xmlns:v="http://schemas.microsoft.com/visio/2003/SVGExtensions/" width="34.0787in" height="16.5354in"
		viewBox="0 0 2453.67 1190.55" xml:space="preserve" color-interpolation-filters="sRGB" class="st19">
	<v:documentProperties v:langID="2057" v:metric="true" v:viewMarkup="false">
		<v:userDefs>
			<v:ud v:nameU="msvNoAutoConnect" v:val="VT0(1):26"/>
		</v:userDefs>
	</v:documentProperties>

	<style type="text/css">
	<![CDATA[
		.st1 {fill:none;stroke:#ff0000;stroke-linecap:round;stroke-linejoin:round;stroke-width:0.75}
		.st2 {fill:#ff0000;font-family:Calibri;font-size:1.00001em}
		.st3 {fill:#c81e1e;stroke:none;stroke-linecap:butt;stroke-width:0.999898}
		.st4 {fill:#f44335;stroke:none;stroke-linecap:butt;stroke-width:0.999898}
		.st5 {fill:#cfd8dc;stroke:none;stroke-linecap:butt;stroke-width:0.999898}
		.st6 {fill:#f5f5f5;stroke:none;stroke-linecap:butt;stroke-width:0.999898}
		.st7 {fill:#37474f;stroke:none;stroke-linecap:butt;stroke-width:0.999898}
		.st8 {fill:#000000;stroke:none;stroke-linecap:butt;stroke-width:0.999898}
		.st9 {fill:none;stroke:none;stroke-linecap:round;stroke-linejoin:round;stroke-width:0.75}
		.st10 {fill:#e40520;font-family:Calibri;font-size:1.00001em}
		.st11 {font-size:1em}
		.st12 {fill:#ffffff;stroke:none;stroke-linecap:round;stroke-linejoin:round;stroke-width:0.75}
		.st13 {fill:#0063a2;fill-opacity:0.098;stroke:none;stroke-linecap:butt;stroke-width:0.75}
		.st14 {fill:#0063a2;font-family:Calibri;font-size:2.50001em}
		.st15 {fill:#ffffff;stroke:#1e3773;stroke-linecap:round;stroke-linejoin:round;stroke-width:0.24}
		.st16 {fill:#1e3773;font-family:Calibri;font-size:1.33333em}
		.st17 {fill:#ffffff;fill-opacity:0.4;stroke:#1e3773;stroke-linecap:round;stroke-linejoin:round;stroke-width:0.75}
		.st18 {fill:#1e3773;font-family:Calibri;font-size:1.00001em}
		.st19 {fill:none;fill-rule:evenodd;font-size:12px;overflow:visible;stroke-linecap:square;stroke-miterlimit:3}
	]]>
	</style>

	<g v:mID="24" v:index="2" v:groupContext="foregroundPage">
		<title>0002</title>
		<v:pageProperties v:drawingScale="0.0393701" v:pageScale="0.0393701" v:drawingUnits="24" v:shadowOffsetX="8.50394"
				v:shadowOffsetY="-8.50394"/>
		<v:layer v:name="displays" v:index="0" v:print="false" v:snap="false" v:glue="false"/>
		<v:layer v:name="Connector" v:index="1"/>
		<g id="shape1-1" v:mID="1" v:groupContext="shape" v:layerMember="0" transform="translate(4.47642E-013,-619.778)">
			<title>Sheet.1</title>
			<desc>DisplayM</desc>
			<v:custProps>
				<v:cp v:nameU="display" v:lbl="activeShape" v:type="0" v:langID="2057" v:val="VT4(M)"/>
			</v:custProps>
			<v:textBlock v:margins="rect(4,4,4,4)" v:tabSpace="42.5197" v:verticalAlign="0"/>
			<v:textRect cx="420.945" cy="905.165" width="841.89" height="570.773"/>
			<rect x="0" y="619.778" width="841.89" height="570.773" class="st1"/>
			<text x="4" y="634.58" class="st2" v:langID="2057"><v:paragraph/><v:tabList/>DisplayM</text>		</g>
		<g id="shape2-4" v:mID="2" v:groupContext="shape" v:layerMember="0" transform="translate(-216.85,-619.778)">
			<title>Sheet.2</title>
			<desc>DisplayL</desc>
			<v:custProps>
				<v:cp v:nameU="display" v:lbl="activeShape" v:type="0" v:langID="2057" v:val="VT4(L)"/>
			</v:custProps>
			<v:textBlock v:margins="rect(4,4,4,4)" v:tabSpace="42.5197" v:verticalAlign="0"/>
			<v:textRect cx="637.795" cy="905.165" width="1275.6" height="570.773"/>
			<rect x="0" y="619.778" width="1275.59" height="570.773" class="st1"/>
			<text x="4" y="634.58" class="st2" v:langID="2057"><v:paragraph/><v:tabList/>DisplayL</text>		</g>
		<g id="shape3-7" v:mID="3" v:groupContext="shape" v:layerMember="0" transform="translate(1117.24,-619.778)">
			<title>Sheet.3</title>
			<desc>DisplayS</desc>
			<v:custProps>
				<v:cp v:nameU="display" v:lbl="activeShape" v:type="0" v:langID="2057" v:val="VT4(S)"/>
			</v:custProps>
			<v:textBlock v:margins="rect(4,4,4,4)" v:tabSpace="42.5197" v:verticalAlign="0"/>
			<v:textRect cx="226.772" cy="905.165" width="453.55" height="570.773"/>
			<rect x="0" y="619.778" width="453.543" height="570.773" class="st1"/>
			<text x="4" y="634.58" class="st2" v:langID="2057"><v:paragraph/><v:tabList/>DisplayS</text>		</g>
		<g id="shape4-10" v:mID="4" v:groupContext="shape" v:layerMember="0" transform="translate(1629.92,-963.78)">
			<title>Sheet.4</title>
			<desc>DisplayT</desc>
			<v:custProps>
				<v:cp v:nameU="display" v:lbl="activeShape" v:type="0" v:langID="2057" v:val="VT4(T)"/>
			</v:custProps>
			<v:textBlock v:margins="rect(4,4,4,4)" v:tabSpace="42.5197" v:verticalAlign="0"/>
			<v:textRect cx="113.386" cy="1077.17" width="226.78" height="226.772"/>
			<rect x="0" y="963.78" width="226.772" height="226.772" class="st1"/>
			<text x="4" y="978.58" class="st2" v:langID="2057"><v:paragraph/><v:tabList/>DisplayT</text>		</g>
		<g id="group6-13" transform="translate(1700.78,-1062.99)" v:mID="6" v:groupContext="group">
			<title>Sheet.6</title>
			<g id="shape7-14" v:mID="7" v:groupContext="shape" transform="translate(1.47905,-1.41407)">
				<title>Sheet.7</title>
				<path d="M75.53 1190.55 L6.56 1190.55 C4.3 1190.52 2.23 1189.3 1.11 1187.33 C0 1185.37 0.01 1182.96 1.15 1181.01
							 L35.63 1120.63 C36.01 1119.96 36.51 1119.37 37.11 1118.89 C38.52 1117.72 40.39 1117.24 42.19 1117.57
							 C44 1117.91 45.56 1119.03 46.46 1120.63 L80.94 1181.01 C82.08 1182.96 82.09 1185.37 80.98 1187.33 C79.86
							 1189.3 77.79 1190.52 75.53 1190.55 Z" class="st3"/>
			</g>
			<g id="shape8-16" v:mID="8" v:groupContext="shape" transform="translate(1.47905,-1.41407)">
				<title>Sheet.8</title>
				<path d="M75.24 1190.55 L6.56 1190.55 C4.3 1190.52 2.23 1189.3 1.11 1187.33 C0 1185.37 0.01 1182.96 1.15 1181.01
							 L35.63 1120.63 C36.01 1119.96 36.51 1119.37 37.11 1118.89 C39.25 1118.97 41.2 1120.17 42.24 1122.04
							 L76.73 1182.41 C78.29 1185.13 77.66 1188.57 75.24 1190.55 Z" class="st4"/>
			</g>
			<g id="shape9-18" v:mID="9" v:groupContext="shape" transform="translate(7.34636,-7.02855)">
				<title>Sheet.9</title>
				<path d="M70.2 1190.22 C70.1 1190.42 69.89 1190.55 69.67 1190.54 L0.69 1190.54 C0.46 1190.55 0.25 1190.42 0.15 1190.22
							 C0 1189.98 0 1189.66 0.15 1189.42 L33.07 1131.8 L34.64 1129.04 C34.74 1128.84 34.95 1128.71 35.18 1128.71
							 C35.41 1128.71 35.61 1128.84 35.71 1129.04 L70.2 1189.42 C70.35 1189.66 70.35 1189.98 70.2 1190.22 Z"
						class="st5"/>
			</g>
			<g id="shape10-20" v:mID="10" v:groupContext="shape" transform="translate(7.34636,-7.02855)">
				<title>Sheet.10</title>
				<path d="M65.98 1190.22 C65.88 1190.42 65.68 1190.55 65.45 1190.54 L0.69 1190.54 C0.46 1190.55 0.25 1190.42 0.15
							 1190.22 C0 1189.98 0 1189.66 0.15 1189.42 L33.07 1131.8 L65.98 1189.42 C66.14 1189.66 66.14 1189.98
							 65.98 1190.22 Z" class="st6"/>
			</g>
			<g id="shape11-22" v:mID="11" v:groupContext="shape" transform="translate(27.0642,-12.6572)">
				<title>Sheet.11</title>
				<path d="M4.22 1190.55 L1.41 1190.55 C0.63 1190.55 0 1189.92 0 1189.15 L0 1177.9 C0 1177.24 0.23 1176.61 0.65 1176.1
							 L7.03 1168.45 L7.03 1159.63 C7.03 1158.86 7.66 1158.23 8.43 1158.23 L11.24 1158.23 C12.02 1158.23 12.65
							 1158.86 12.65 1159.63 L12.65 1169.47 C12.65 1170.13 12.42 1170.76 12 1171.27 L5.62 1178.92 L5.62 1189.15
							 C5.62 1189.92 4.99 1190.55 4.22 1190.55 Z" class="st7"/>
			</g>
			<g id="shape12-24" v:mID="12" v:groupContext="shape" transform="translate(45.3346,-12.6572)">
				<title>Sheet.12</title>
				<path d="M7.03 1189.15 C7.03 1189.92 7.66 1190.55 8.43 1190.55 L11.24 1190.55 C12.02 1190.55 12.65 1189.92 12.65
							 1189.15 L12.65 1177.9 C12.65 1177.24 12.42 1176.61 12 1176.1 L8.81 1172.28 L5.62 1168.45 L5.62 1159.63
							 C5.62 1158.86 4.99 1158.23 4.22 1158.23 L1.41 1158.23 C0.63 1158.23 0 1158.86 0 1159.63 L0 1169.47 C0
							 1170.13 0.23 1170.76 0.65 1171.27 L3.84 1175.09 L7.03 1178.92 L7.03 1189.15 Z" class="st7"/>
			</g>
			<g id="shape13-26" v:mID="13" v:groupContext="shape">
				<title>Sheet.13</title>
				<path d="M77.02 1190.54 L8.03 1190.54 C5.3 1190.55 2.78 1189.09 1.43 1186.72 C0.01 1184.31 0 1181.32 1.4 1178.9 L35.89
							 1118.52 C37.24 1116.13 39.78 1114.65 42.52 1114.65 C45.27 1114.65 47.81 1116.13 49.15 1118.52 L83.65
							 1178.9 C85.05 1181.32 85.04 1184.31 83.62 1186.72 C82.27 1189.09 79.75 1190.55 77.02 1190.54 ZM42.52
							 1117.46 C40.78 1117.46 39.18 1118.4 38.33 1119.92 L3.84 1180.3 C2.94 1181.85 2.95 1183.76 3.86 1185.31
							 C4.71 1186.81 6.3 1187.73 8.03 1187.73 L77.02 1187.73 C78.74 1187.73 80.34 1186.81 81.19 1185.31 C82.1
							 1183.76 82.1 1181.85 81.21 1180.3 L46.71 1119.92 C45.87 1118.4 44.26 1117.46 42.52 1117.46 Z"
						class="st8"/>
			</g>
			<g id="shape14-28" v:mID="14" v:groupContext="shape" transform="translate(5.87953,-5.62477)">
				<title>Sheet.14</title>
				<path d="M71.14 1190.55 L2.15 1190.55 C1.43 1190.55 0.76 1190.16 0.41 1189.52 C0 1188.84 0 1187.99 0.4 1187.31 L34.89
							 1126.94 C35.24 1126.29 35.91 1125.89 36.64 1125.9 C37.38 1125.89 38.05 1126.3 38.4 1126.94 L72.89 1187.32
							 C73.29 1188 73.28 1188.84 72.88 1189.52 C72.53 1190.16 71.86 1190.55 71.14 1190.55 ZM2.15 1187.73 L2.15
							 1189.14 L2.15 1187.73 L2.15 1187.73 ZM3.4 1187.73 L69.89 1187.73 L36.64 1129.54 L3.4 1187.73 Z"
						class="st8"/>
			</g>
			<g id="shape15-30" v:mID="15" v:groupContext="shape" transform="translate(25.6585,-11.2521)">
				<title>Sheet.15</title>
				<path d="M7.03 1190.55 L1.41 1190.55 C0.63 1190.55 0 1189.92 0 1189.15 L0 1176.5 C0 1175.51 0.35 1174.56 0.98 1173.8
							 L7.03 1166.54 L7.03 1156.82 C7.03 1156.05 7.66 1155.42 8.43 1155.42 L14.05 1155.42 C14.83 1155.42 15.46
							 1156.05 15.46 1156.82 L15.46 1168.06 C15.46 1169.05 15.11 1170.01 14.48 1170.76 L8.43 1178.02 L8.43
							 1189.15 C8.43 1189.92 7.8 1190.55 7.03 1190.55 ZM2.81 1187.74 L5.62 1187.74 L5.62 1177.52 C5.62 1177.19
							 5.74 1176.87 5.95 1176.62 L12.32 1168.96 C12.53 1168.71 12.65 1168.39 12.65 1168.06 L12.65 1158.23 L9.84
							 1158.23 L9.84 1167.05 C9.84 1167.38 9.72 1167.69 9.51 1167.95 L3.14 1175.6 C2.93 1175.85 2.81 1176.17
							 2.81 1176.5 L2.81 1187.74 Z" class="st8"/>
			</g>
			<g id="shape16-32" v:mID="16" v:groupContext="shape" transform="translate(43.9289,-11.2521)">
				<title>Sheet.16</title>
				<path d="M14.05 1190.55 L8.43 1190.55 C7.66 1190.55 7.03 1189.92 7.03 1189.15 L7.03 1178.02 L0.98 1170.76 C0.35 1170.01
							 0 1169.05 0 1168.06 L0 1156.82 C0 1156.05 0.63 1155.42 1.41 1155.42 L7.03 1155.42 C7.8 1155.42 8.43
							 1156.05 8.43 1156.82 L8.43 1166.54 L14.48 1173.8 C15.11 1174.56 15.46 1175.51 15.46 1176.5 L15.46 1189.15
							 C15.46 1189.92 14.83 1190.55 14.05 1190.55 ZM9.84 1187.74 L12.65 1187.74 L12.65 1176.5 C12.65 1176.17
							 12.53 1175.85 12.32 1175.6 L5.95 1167.95 C5.74 1167.69 5.62 1167.38 5.62 1167.05 L5.62 1158.23 L2.81
							 1158.23 L2.81 1168.06 C2.81 1168.39 2.93 1168.71 3.14 1168.96 L9.51 1176.62 C9.72 1176.87 9.84 1177.19
							 9.84 1177.52 L9.84 1187.74 Z" class="st8"/>
			</g>
		</g>
		<g id="shape17-34" v:mID="17" v:groupContext="shape" transform="translate(1646.93,-1001.2)">
			<title>Sheet.17</title>
			<desc>Sorry, your screen is not wide enough to fit this image.</desc>
			<v:textBlock v:margins="rect(4,4,4,4)" v:tabSpace="42.5197"/>
			<v:textRect cx="95.5276" cy="1170.28" width="191.06" height="40.5354"/>
			<rect x="0" y="1150.02" width="191.055" height="40.5354" class="st9"/>
			<text x="23.35" y="1166.68" class="st10" v:langID="2057"><v:paragraph v:horizAlign="1"/><v:tabList/>Sorry, your screen is not wide <tspan
						x="36.03" dy="1.2em" class="st11">enough to fit this image</tspan>.</text>		</g>
		<g id="shape41-38" v:mID="41" v:groupContext="shape" transform="translate(18,-651.969)">
			<title>Sheet.41</title>
			<rect x="0" y="780.274" width="311.811" height="410.278" class="st12"/>
		</g>
		<g id="group33-40" transform="translate(93.1384,-692.356)" v:mID="33" v:groupContext="group">
			<title>Sheet.33</title>
			<g id="group34-41" v:mID="34" v:groupContext="group">
				<title>Sheet.34</title>
				<g id="shape35-42" v:mID="35" v:groupContext="shape" transform="translate(348.671,-234.139)">
					<title>Sheet.35</title>
					<path d="M2.31 1187.37 C4.63 1190.18 8.77 1190.55 11.55 1188.25 L25.48 1176.76 C27.29 1177.56 29.3 1178.02 31.42
								 1178.02 C39.52 1178.02 46.1 1171.45 46.1 1163.34 C46.1 1157.6 42.79 1152.64 37.98 1150.22 L37.98
								 1137.93 C37.98 1134.31 35.04 1131.37 31.42 1131.37 C27.79 1131.37 24.85 1134.31 24.85 1137.93 L24.85
								 1150.22 C20.04 1152.64 16.74 1157.6 16.74 1163.34 C16.74 1164.47 16.88 1165.57 17.12 1166.63 L3.19
								 1178.13 C0.4 1180.44 0 1184.57 2.31 1187.37 Z" class="st13"/>
				</g>
				<g id="shape36-44" v:mID="36" v:groupContext="shape">
					<title>Sheet.36</title>
					<path d="M433.44 1140.37 L424.07 1140.37 L424.07 1124.19 C424.07 1117.67 418.77 1112.37 412.25 1112.37 L408.44
								 1112.37 L408.44 1097.46 C408.44 1090.94 403.14 1085.64 396.62 1085.64 L386.65 1085.64 L386.65 994.04
								 C419.51 990.73 445.25 962.92 445.25 929.2 C445.25 925.5 444.94 921.78 444.32 918.15 C443.71 914.58
								 440.31 912.17 436.74 912.78 C433.17 913.4 430.77 916.79 431.38 920.36 C431.87 923.26 432.12 926.24
								 432.12 929.2 C432.12 957.89 408.78 981.24 380.09 981.24 C351.39 981.24 328.05 957.89 328.05 929.2
								 C328.05 900.51 351.39 877.16 380.09 877.16 C394.59 877.16 408.05 882.99 417.99 893.55 C420.48 896.19
								 424.64 896.32 427.27 893.84 C429.92 891.35 430.04 887.2 427.56 884.56 C415.29 871.51 397.99 864.04
								 380.09 864.04 C344.15 864.04 314.92 893.27 314.92 929.2 C314.92 962.92 340.66 990.73 373.52 994.04
								 L373.52 1085.64 L363.55 1085.64 C357.04 1085.64 351.74 1090.94 351.74 1097.46 L351.74 1112.37 L347.92
								 1112.37 C341.4 1112.37 336.1 1117.67 336.1 1124.19 L336.1 1140.37 L312.48 1140.37 C317.64 1132.25
								 320.48 1122.73 320.48 1112.97 C320.48 1102.71 317.43 1092.79 311.66 1084.3 L263.78 1013.82 C252.05
								 996.55 237.33 981.99 220.57 970.6 L220.57 805.84 C220.57 790.16 207.8 777.39 192.12 777.39 L11.82
								 777.39 C5.3 777.4 0 782.7 0 789.21 L0 856.6 C0 860.22 2.94 863.16 6.56 863.16 C10.19 863.16 13.13
								 860.22 13.13 856.6 L13.13 851.7 C68.22 856.31 115.26 891.38 135.5 942.58 C133.34 942.49 131.17 942.43
								 129 942.43 L13.13 942.43 L13.13 889.06 C13.13 885.44 10.19 882.5 6.56 882.5 C2.94 882.5 0 885.44
								 0 889.06 L0 1178.73 C0 1185.25 5.3 1190.55 11.82 1190.55 L340.07 1190.55 C343.7 1190.55 346.64 1187.61
								 346.64 1183.99 C346.64 1180.36 343.7 1177.42 340.07 1177.42 L13.13 1177.42 L13.13 1153.5 L432.12
								 1153.5 L432.12 1177.42 L372.01 1177.42 C368.38 1177.42 365.44 1180.36 365.44 1183.99 C365.44 1187.61
								 368.38 1190.55 372.01 1190.55 L433.44 1190.55 C439.95 1190.55 445.25 1185.25 445.25 1178.73 L445.25
								 1152.19 C445.25 1145.67 439.95 1140.37 433.44 1140.37 ZM364.87 1098.77 L395.31 1098.77 L395.31 1112.37
								 L364.87 1112.37 L364.87 1098.77 ZM349.23 1125.5 L410.94 1125.5 L410.94 1140.37 L349.23 1140.37 L349.23
								 1125.5 ZM293.54 1080.99 L263.19 1080.99 C256.95 1080.99 251.1 1077.94 247.52 1072.82 L216.22 1028.01
								 C214.44 1025.45 215.36 1023.03 215.84 1022.11 C216.32 1021.19 217.78 1019.04 220.9 1019.04 L251.41
								 1019.04 C251.92 1019.76 293.54 1080.99 293.54 1080.99 ZM97.48 871.05 C73.02 852.11 43.91 840.89
								 13.13 838.52 L13.13 790.52 L192.12 790.52 C200.57 790.52 207.44 797.4 207.44 805.84 L207.44 962.55
								 C189.75 952.84 170.28 946.42 149.94 943.79 C139.86 914.98 121.76 889.86 97.48 871.05 ZM145.36 1019.04
								 C149.95 1019.04 153.68 1022.77 153.68 1027.36 L153.68 1072.68 C153.68 1077.26 149.95 1080.99 145.36
								 1080.99 L87.34 1080.99 L87.34 1019.04 L145.36 1019.04 ZM74.21 1080.99 L13.13 1080.99 L13.13 1019.04
								 L74.21 1019.04 L74.21 1080.99 ZM13.13 1094.12 L145.36 1094.12 C157.18 1094.12 166.8 1084.5 166.8
								 1072.68 L166.8 1027.36 C166.8 1015.53 157.18 1005.91 145.36 1005.91 L13.13 1005.91 L13.13 955.56
								 L129 955.56 C172.17 955.56 212.8 974.09 241.03 1005.91 L220.9 1005.91 C213.85 1005.91 207.46 1009.79
								 204.2 1016.04 C200.94 1022.29 201.43 1029.75 205.46 1035.53 L236.76 1080.34 C242.79 1088.97 252.67
								 1094.12 263.19 1094.12 L302.33 1094.12 C305.62 1099.85 307.35 1106.31 307.35 1112.97 C307.35 1123.29
								 303.08 1133.24 295.62 1140.37 L13.13 1140.37 L13.13 1094.12 Z" class="st13"/>
				</g>
			</g>
		</g>
		<g id="shape38-46" v:mID="38" v:groupContext="shape" transform="translate(283.465,-1028.19)">
			<title>Sheet.38</title>
			<desc>Completion Certificates</desc>
			<v:textBlock v:margins="rect(4,4,4,4)" v:tabSpace="42.5197"/>
			<v:textRect cx="211.623" cy="1152.6" width="423.25" height="75.9006"/>
			<rect x="0" y="1114.65" width="423.247" height="75.9006" class="st9"/>
			<text x="68.24" y="1161.6" class="st14" v:langID="2057"><v:paragraph v:horizAlign="1"/><v:tabList/>Completion Certificates</text>		</g>
		<g id="shape180-49" v:mID="180" v:groupContext="shape" transform="translate(43.7766,1244.95) rotate(-0.41518) scale(1,-1)">
			<title>Notched Arrow</title>
			<desc>Back</desc>
			<v:custProps>
				<v:cp v:nameU="pagelink" v:lbl="active shape" v:type="0" v:langID="2057" v:val="VT4(0001.svg)"/>
			</v:custProps>
			<v:userDefs>
				<v:ud v:nameU="visVersion" v:val="VT0(15):26"/>
				<v:ud v:nameU="ArrowType" v:prompt="" v:val="VT0(2):26"/>
			</v:userDefs>
			<v:textBlock v:margins="rect(4,4,4,4)" v:tabSpace="42.5197"/>
			<v:textRect cx="39.1191" cy="1190.55" width="78.24" height="0"/>
			<path d="M0 1190.55 L11.34 1170.74 L11.34 1180.65 L78.24 1180.65 L68.33 1190.55 L78.24 1200.46 L11.34 1200.46 L11.34
						 1210.36 L0 1190.55 Z" class="st15"/>
			<text x="23.92" y="-1185.75" transform="scale(1,-1)" class="st16" v:langID="2057"><v:paragraph v:horizAlign="1"/><v:tabList/>Back</text>		</g>
		<g id="shape192-52" v:mID="192" v:groupContext="shape" transform="translate(-545.396,394.016) rotate(-90)">
			<title>Sheet.192</title>
			<desc>Systems Integration Certificate</desc>
			<v:textBlock v:margins="rect(4,4,4,4)" v:tabSpace="42.5197"/>
			<v:textRect cx="83.622" cy="1158.8" width="167.25" height="63.5064"/>
			<rect x="0" y="1127.04" width="167.244" height="63.5064" class="st17"/>
			<text x="19" y="1154" class="st16" v:langID="2057"><v:paragraph v:horizAlign="1"/><v:tabList/>Systems Integration <tspan
						x="49.92" dy="1.2em" class="st11">Certificate</tspan></text>		</g>
		<g id="shape181-56" v:mID="181" v:groupContext="shape" transform="translate(146.176,-922.677)">
			<title>Sheet.181</title>
			<desc>Design Approval Certificate</desc>
			<v:textBlock v:margins="rect(4,4,4,4)" v:tabSpace="42.5197"/>
			<v:textRect cx="72.5788" cy="1170" width="145.16" height="41.1024"/>
			<rect x="0" y="1149.45" width="145.158" height="41.1024" class="st17"/>
			<text x="19.61" y="1165.2" class="st16" v:langID="2057"><v:paragraph v:horizAlign="1"/><v:tabList/>Design Approval <tspan
						x="38.88" dy="1.2em" class="st11">Certificate</tspan></text>		</g>
		<g id="shape182-60" v:mID="182" v:groupContext="shape" transform="translate(291.333,-922.677)">
			<title>Sheet.182</title>
			<desc>Stage Completion Certificate</desc>
			<v:textBlock v:margins="rect(4,4,4,4)" v:tabSpace="42.5197"/>
			<v:textRect cx="72.5788" cy="1170" width="145.16" height="41.1024"/>
			<rect x="0" y="1149.45" width="145.158" height="41.1024" class="st17"/>
			<text x="15" y="1165.2" class="st16" v:langID="2057"><v:paragraph v:horizAlign="1"/><v:tabList/>Stage Completion <tspan
						x="38.88" dy="1.2em" class="st11">Certificate</tspan></text>		</g>
		<g id="shape183-64" v:mID="183" v:groupContext="shape" transform="translate(436.491,-922.677)">
			<title>Sheet.183</title>
			<desc>Section Completion Certificate</desc>
			<v:textBlock v:margins="rect(4,4,4,4)" v:tabSpace="42.5197"/>
			<v:textRect cx="72.5788" cy="1170" width="145.16" height="41.1024"/>
			<rect x="0" y="1149.45" width="145.158" height="41.1024" class="st17"/>
			<text x="7.15" y="1165.2" class="st16" v:langID="2057"><v:paragraph v:horizAlign="1"/><v:tabList/>Section  Completion <tspan
						x="38.88" dy="1.2em" class="st11">Certificate</tspan></text>		</g>
		<g id="shape184-68" v:mID="184" v:groupContext="shape" transform="translate(146.176,-859.606)">
			<title>Sheet.184</title>
			<desc>Design Approval Certificate</desc>
			<v:textBlock v:margins="rect(4,4,4,4)" v:tabSpace="42.5197"/>
			<v:textRect cx="72.5788" cy="1170" width="145.16" height="41.1024"/>
			<rect x="0" y="1149.45" width="145.158" height="41.1024" class="st17"/>
			<text x="19.61" y="1165.2" class="st16" v:langID="2057"><v:paragraph v:horizAlign="1"/><v:tabList/>Design Approval <tspan
						x="38.88" dy="1.2em" class="st11">Certificate</tspan></text>		</g>
		<g id="shape185-72" v:mID="185" v:groupContext="shape" transform="translate(291.333,-859.606)">
			<title>Sheet.185</title>
			<desc>Stage Completion Certificate</desc>
			<v:textBlock v:margins="rect(4,4,4,4)" v:tabSpace="42.5197"/>
			<v:textRect cx="72.5788" cy="1170" width="145.16" height="41.1024"/>
			<rect x="0" y="1149.45" width="145.158" height="41.1024" class="st17"/>
			<text x="15" y="1165.2" class="st16" v:langID="2057"><v:paragraph v:horizAlign="1"/><v:tabList/>Stage Completion <tspan
						x="38.88" dy="1.2em" class="st11">Certificate</tspan></text>		</g>
		<g id="shape190-76" v:mID="190" v:groupContext="shape" transform="translate(436.491,-859.606)">
			<title>Sheet.190</title>
			<desc>Section Completion Certificate</desc>
			<v:textBlock v:margins="rect(4,4,4,4)" v:tabSpace="42.5197"/>
			<v:textRect cx="72.5788" cy="1170" width="145.16" height="41.1024"/>
			<rect x="0" y="1149.45" width="145.158" height="41.1024" class="st17"/>
			<text x="7.15" y="1165.2" class="st16" v:langID="2057"><v:paragraph v:horizAlign="1"/><v:tabList/>Section  Completion <tspan
						x="38.88" dy="1.2em" class="st11">Certificate</tspan></text>		</g>
		<g id="shape187-80" v:mID="187" v:groupContext="shape" transform="translate(146.176,-796.535)">
			<title>Sheet.187</title>
			<desc>Design Approval Certificate</desc>
			<v:textBlock v:margins="rect(4,4,4,4)" v:tabSpace="42.5197"/>
			<v:textRect cx="72.5788" cy="1170" width="145.16" height="41.1024"/>
			<rect x="0" y="1149.45" width="145.158" height="41.1024" class="st17"/>
			<text x="19.61" y="1165.2" class="st16" v:langID="2057"><v:paragraph v:horizAlign="1"/><v:tabList/>Design Approval <tspan
						x="38.88" dy="1.2em" class="st11">Certificate</tspan></text>		</g>
		<g id="shape188-84" v:mID="188" v:groupContext="shape" transform="translate(291.333,-796.535)">
			<title>Sheet.188</title>
			<desc>Stage Completion Certificate</desc>
			<v:textBlock v:margins="rect(4,4,4,4)" v:tabSpace="42.5197"/>
			<v:textRect cx="72.5788" cy="1170" width="145.16" height="41.1024"/>
			<rect x="0" y="1149.45" width="145.158" height="41.1024" class="st17"/>
			<text x="15" y="1165.2" class="st16" v:langID="2057"><v:paragraph v:horizAlign="1"/><v:tabList/>Stage Completion <tspan
						x="38.88" dy="1.2em" class="st11">Certificate</tspan></text>		</g>
		<g id="shape191-88" v:mID="191" v:groupContext="shape" transform="translate(436.491,-796.535)">
			<title>Sheet.191</title>
			<desc>Section Completion Certificate</desc>
			<v:textBlock v:margins="rect(4,4,4,4)" v:tabSpace="42.5197"/>
			<v:textRect cx="72.5788" cy="1170" width="145.16" height="41.1024"/>
			<rect x="0" y="1149.45" width="145.158" height="41.1024" class="st17"/>
			<text x="7.15" y="1165.2" class="st16" v:langID="2057"><v:paragraph v:horizAlign="1"/><v:tabList/>Section  Completion <tspan
						x="38.88" dy="1.2em" class="st11">Certificate</tspan></text>		</g>
		<g id="shape198-92" v:mID="198" v:groupContext="shape" transform="translate(-481.89,394.016) rotate(-90)">
			<title>Sheet.198</title>
			<desc>Completion Certificate</desc>
			<v:textBlock v:margins="rect(4,4,4,4)" v:tabSpace="42.5197"/>
			<v:textRect cx="83.622" cy="1158.8" width="167.25" height="63.5064"/>
			<rect x="0" y="1127.04" width="167.244" height="63.5064" class="st17"/>
			<text x="10.28" y="1163.6" class="st16" v:langID="2057"><v:paragraph v:horizAlign="1"/><v:tabList/>Completion Certificate</text>		</g>
		<g id="shape199-95" v:mID="199" v:groupContext="shape" transform="translate(822.047,-82.2047)">
			<title>Sheet.199</title>
			<rect x="0" y="780.274" width="311.811" height="410.278" class="st12"/>
		</g>
		<g id="group200-97" transform="translate(1123.83,-686.335)" v:mID="200" v:groupContext="group">
			<title>Sheet.200</title>
			<g id="group201-98" v:mID="201" v:groupContext="group">
				<title>Sheet.201</title>
				<g id="shape202-99" v:mID="202" v:groupContext="shape" transform="translate(348.671,-234.139)">
					<title>Sheet.202</title>
					<path d="M2.31 1187.37 C4.63 1190.18 8.77 1190.55 11.55 1188.25 L25.48 1176.76 C27.29 1177.56 29.3 1178.02 31.42
								 1178.02 C39.52 1178.02 46.1 1171.45 46.1 1163.34 C46.1 1157.6 42.79 1152.64 37.98 1150.22 L37.98
								 1137.93 C37.98 1134.31 35.04 1131.37 31.42 1131.37 C27.79 1131.37 24.85 1134.31 24.85 1137.93 L24.85
								 1150.22 C20.04 1152.64 16.74 1157.6 16.74 1163.34 C16.74 1164.47 16.88 1165.57 17.12 1166.63 L3.19
								 1178.13 C0.4 1180.44 0 1184.57 2.31 1187.37 Z" class="st13"/>
				</g>
				<g id="shape203-101" v:mID="203" v:groupContext="shape">
					<title>Sheet.203</title>
					<path d="M433.44 1140.37 L424.07 1140.37 L424.07 1124.19 C424.07 1117.67 418.77 1112.37 412.25 1112.37 L408.44
								 1112.37 L408.44 1097.46 C408.44 1090.94 403.14 1085.64 396.62 1085.64 L386.65 1085.64 L386.65 994.04
								 C419.51 990.73 445.25 962.92 445.25 929.2 C445.25 925.5 444.94 921.78 444.32 918.15 C443.71 914.58
								 440.31 912.17 436.74 912.78 C433.17 913.4 430.77 916.79 431.38 920.36 C431.87 923.26 432.12 926.24
								 432.12 929.2 C432.12 957.89 408.78 981.24 380.09 981.24 C351.39 981.24 328.05 957.89 328.05 929.2
								 C328.05 900.51 351.39 877.16 380.09 877.16 C394.59 877.16 408.05 882.99 417.99 893.55 C420.48 896.19
								 424.64 896.32 427.27 893.84 C429.92 891.35 430.04 887.2 427.56 884.56 C415.29 871.51 397.99 864.04
								 380.09 864.04 C344.15 864.04 314.92 893.27 314.92 929.2 C314.92 962.92 340.66 990.73 373.52 994.04
								 L373.52 1085.64 L363.55 1085.64 C357.04 1085.64 351.74 1090.94 351.74 1097.46 L351.74 1112.37 L347.92
								 1112.37 C341.4 1112.37 336.1 1117.67 336.1 1124.19 L336.1 1140.37 L312.48 1140.37 C317.64 1132.25
								 320.48 1122.73 320.48 1112.97 C320.48 1102.71 317.43 1092.79 311.66 1084.3 L263.78 1013.82 C252.05
								 996.55 237.33 981.99 220.57 970.6 L220.57 805.84 C220.57 790.16 207.8 777.39 192.12 777.39 L11.82
								 777.39 C5.3 777.4 0 782.7 0 789.21 L0 856.6 C0 860.22 2.94 863.16 6.56 863.16 C10.19 863.16 13.13
								 860.22 13.13 856.6 L13.13 851.7 C68.22 856.31 115.26 891.38 135.5 942.58 C133.34 942.49 131.17 942.43
								 129 942.43 L13.13 942.43 L13.13 889.06 C13.13 885.44 10.19 882.5 6.56 882.5 C2.94 882.5 0 885.44
								 0 889.06 L0 1178.73 C0 1185.25 5.3 1190.55 11.82 1190.55 L340.07 1190.55 C343.7 1190.55 346.64 1187.61
								 346.64 1183.99 C346.64 1180.36 343.7 1177.42 340.07 1177.42 L13.13 1177.42 L13.13 1153.5 L432.12
								 1153.5 L432.12 1177.42 L372.01 1177.42 C368.38 1177.42 365.44 1180.36 365.44 1183.99 C365.44 1187.61
								 368.38 1190.55 372.01 1190.55 L433.44 1190.55 C439.95 1190.55 445.25 1185.25 445.25 1178.73 L445.25
								 1152.19 C445.25 1145.67 439.95 1140.37 433.44 1140.37 ZM364.87 1098.77 L395.31 1098.77 L395.31 1112.37
								 L364.87 1112.37 L364.87 1098.77 ZM349.23 1125.5 L410.94 1125.5 L410.94 1140.37 L349.23 1140.37 L349.23
								 1125.5 ZM293.54 1080.99 L263.19 1080.99 C256.95 1080.99 251.1 1077.94 247.52 1072.82 L216.22 1028.01
								 C214.44 1025.45 215.36 1023.03 215.84 1022.11 C216.32 1021.19 217.78 1019.04 220.9 1019.04 L251.41
								 1019.04 C251.92 1019.76 293.54 1080.99 293.54 1080.99 ZM97.48 871.05 C73.02 852.11 43.91 840.89
								 13.13 838.52 L13.13 790.52 L192.12 790.52 C200.57 790.52 207.44 797.4 207.44 805.84 L207.44 962.55
								 C189.75 952.84 170.28 946.42 149.94 943.79 C139.86 914.98 121.76 889.86 97.48 871.05 ZM145.36 1019.04
								 C149.95 1019.04 153.68 1022.77 153.68 1027.36 L153.68 1072.68 C153.68 1077.26 149.95 1080.99 145.36
								 1080.99 L87.34 1080.99 L87.34 1019.04 L145.36 1019.04 ZM74.21 1080.99 L13.13 1080.99 L13.13 1019.04
								 L74.21 1019.04 L74.21 1080.99 ZM13.13 1094.12 L145.36 1094.12 C157.18 1094.12 166.8 1084.5 166.8
								 1072.68 L166.8 1027.36 C166.8 1015.53 157.18 1005.91 145.36 1005.91 L13.13 1005.91 L13.13 955.56
								 L129 955.56 C172.17 955.56 212.8 974.09 241.03 1005.91 L220.9 1005.91 C213.85 1005.91 207.46 1009.79
								 204.2 1016.04 C200.94 1022.29 201.43 1029.75 205.46 1035.53 L236.76 1080.34 C242.79 1088.97 252.67
								 1094.12 263.19 1094.12 L302.33 1094.12 C305.62 1099.85 307.35 1106.31 307.35 1112.97 C307.35 1123.29
								 303.08 1133.24 295.62 1140.37 L13.13 1140.37 L13.13 1094.12 Z" class="st13"/>
				</g>
			</g>
		</g>
		<g id="shape204-103" v:mID="204" v:groupContext="shape" transform="translate(1133.86,-1020.47)">
			<title>Sheet.204</title>
			<desc>Completion Certificates</desc>
			<v:textBlock v:margins="rect(4,4,4,4)" v:tabSpace="42.5197"/>
			<v:textRect cx="211.623" cy="1152.6" width="423.25" height="75.9006"/>
			<rect x="0" y="1114.65" width="423.247" height="75.9006" class="st9"/>
			<text x="68.24" y="1161.6" class="st14" v:langID="2057"><v:paragraph v:horizAlign="1"/><v:tabList/>Completion Certificates</text>		</g>
		<g id="shape205-106" v:mID="205" v:groupContext="shape" transform="translate(1132.88,1228.38) rotate(-0.41518) scale(1,-1)">
			<title>Notched Arrow.205</title>
			<desc>Back</desc>
			<v:custProps>
				<v:cp v:nameU="pagelink" v:lbl="active shape" v:type="0" v:langID="2057" v:val="VT4(0001.svg)"/>
			</v:custProps>
			<v:userDefs>
				<v:ud v:nameU="visVersion" v:val="VT0(15):26"/>
				<v:ud v:nameU="ArrowType" v:prompt="" v:val="VT0(2):26"/>
			</v:userDefs>
			<v:textBlock v:margins="rect(4,4,4,4)" v:tabSpace="42.5197"/>
			<v:textRect cx="39.1191" cy="1190.55" width="78.24" height="0"/>
			<path d="M0 1190.55 L11.34 1170.74 L11.34 1180.65 L78.24 1180.65 L68.33 1190.55 L78.24 1200.46 L11.34 1200.46 L11.34
						 1210.36 L0 1190.55 Z" class="st15"/>
			<text x="23.92" y="-1185.75" transform="scale(1,-1)" class="st16" v:langID="2057"><v:paragraph v:horizAlign="1"/><v:tabList/>Back</text>		</g>
		<g id="shape206-109" v:mID="206" v:groupContext="shape" transform="translate(324.613,371.339) rotate(-90)">
			<title>Sheet.206</title>
			<desc>Systems Integration Certificate</desc>
			<v:textBlock v:margins="rect(4,4,4,4)" v:tabSpace="42.5197"/>
			<v:textRect cx="83.622" cy="1165.75" width="167.25" height="49.6063"/>
			<rect x="0" y="1140.94" width="167.244" height="49.6063" class="st17"/>
			<text x="8.52" y="1169.35" class="st18" v:langID="2057"><v:paragraph v:horizAlign="1"/><v:tabList/>Systems Integration Certificate</text>		</g>
		<g id="shape207-112" v:mID="207" v:groupContext="shape" transform="translate(1125.4,-945.354)">
			<title>Sheet.207</title>
			<desc>Design Approval Certificate</desc>
			<v:textBlock v:margins="rect(4,4,4,4)" v:tabSpace="42.5197"/>
			<v:textRect cx="56.6929" cy="1170" width="113.39" height="41.1024"/>
			<rect x="0" y="1149.45" width="113.386" height="41.1024" class="st17"/>
			<text x="16.97" y="1166.4" class="st18" v:langID="2057"><v:paragraph v:horizAlign="1"/><v:tabList/>Design Approval <tspan
						x="31.42" dy="1.2em" class="st11">Certificate</tspan></text>		</g>
		<g id="shape208-116" v:mID="208" v:groupContext="shape" transform="translate(1238.79,-945.354)">
			<title>Sheet.208</title>
			<desc>Stage Completion Certificate</desc>
			<v:textBlock v:margins="rect(4,4,4,4)" v:tabSpace="42.5197"/>
			<v:textRect cx="56.6929" cy="1170" width="113.39" height="41.1024"/>
			<rect x="0" y="1149.45" width="113.386" height="41.1024" class="st17"/>
			<text x="13.51" y="1166.4" class="st18" v:langID="2057"><v:paragraph v:horizAlign="1"/><v:tabList/>Stage Completion <tspan
						x="31.42" dy="1.2em" class="st11">Certificate</tspan></text>		</g>
		<g id="shape209-120" v:mID="209" v:groupContext="shape" transform="translate(1352.17,-945.354)">
			<title>Sheet.209</title>
			<desc>Section Completion Certificate</desc>
			<v:textBlock v:margins="rect(4,4,4,4)" v:tabSpace="42.5197"/>
			<v:textRect cx="56.6929" cy="1170" width="113.39" height="41.1024"/>
			<rect x="0" y="1149.45" width="113.386" height="41.1024" class="st17"/>
			<text x="7.62" y="1166.4" class="st18" v:langID="2057"><v:paragraph v:horizAlign="1"/><v:tabList/>Section  Completion <tspan
						x="31.42" dy="1.2em" class="st11">Certificate</tspan></text>		</g>
		<g id="shape210-124" v:mID="210" v:groupContext="shape" transform="translate(1125.4,-882.283)">
			<title>Sheet.210</title>
			<desc>Design Approval Certificate</desc>
			<v:textBlock v:margins="rect(4,4,4,4)" v:tabSpace="42.5197"/>
			<v:textRect cx="56.6929" cy="1170" width="113.39" height="41.1024"/>
			<rect x="0" y="1149.45" width="113.386" height="41.1024" class="st17"/>
			<text x="16.97" y="1166.4" class="st18" v:langID="2057"><v:paragraph v:horizAlign="1"/><v:tabList/>Design Approval <tspan
						x="31.42" dy="1.2em" class="st11">Certificate</tspan></text>		</g>
		<g id="shape211-128" v:mID="211" v:groupContext="shape" transform="translate(1238.79,-882.283)">
			<title>Sheet.211</title>
			<desc>Stage Completion Certificate</desc>
			<v:textBlock v:margins="rect(4,4,4,4)" v:tabSpace="42.5197"/>
			<v:textRect cx="56.6929" cy="1170" width="113.39" height="41.1024"/>
			<rect x="0" y="1149.45" width="113.386" height="41.1024" class="st17"/>
			<text x="13.51" y="1166.4" class="st18" v:langID="2057"><v:paragraph v:horizAlign="1"/><v:tabList/>Stage Completion <tspan
						x="31.42" dy="1.2em" class="st11">Certificate</tspan></text>		</g>
		<g id="shape212-132" v:mID="212" v:groupContext="shape" transform="translate(1352.17,-882.283)">
			<title>Sheet.212</title>
			<desc>Section Completion Certificate</desc>
			<v:textBlock v:margins="rect(4,4,4,4)" v:tabSpace="42.5197"/>
			<v:textRect cx="56.6929" cy="1170" width="113.39" height="41.1024"/>
			<rect x="0" y="1149.45" width="113.386" height="41.1024" class="st17"/>
			<text x="7.62" y="1166.4" class="st18" v:langID="2057"><v:paragraph v:horizAlign="1"/><v:tabList/>Section  Completion <tspan
						x="31.42" dy="1.2em" class="st11">Certificate</tspan></text>		</g>
		<g id="shape213-136" v:mID="213" v:groupContext="shape" transform="translate(1125.4,-819.213)">
			<title>Sheet.213</title>
			<desc>Design Approval Certificate</desc>
			<v:textBlock v:margins="rect(4,4,4,4)" v:tabSpace="42.5197"/>
			<v:textRect cx="56.6929" cy="1170" width="113.39" height="41.1024"/>
			<rect x="0" y="1149.45" width="113.386" height="41.1024" class="st17"/>
			<text x="16.97" y="1166.4" class="st18" v:langID="2057"><v:paragraph v:horizAlign="1"/><v:tabList/>Design Approval <tspan
						x="31.42" dy="1.2em" class="st11">Certificate</tspan></text>		</g>
		<g id="shape214-140" v:mID="214" v:groupContext="shape" transform="translate(1238.79,-819.213)">
			<title>Sheet.214</title>
			<desc>Stage Completion Certificate</desc>
			<v:textBlock v:margins="rect(4,4,4,4)" v:tabSpace="42.5197"/>
			<v:textRect cx="56.6929" cy="1170" width="113.39" height="41.1024"/>
			<rect x="0" y="1149.45" width="113.386" height="41.1024" class="st17"/>
			<text x="13.51" y="1166.4" class="st18" v:langID="2057"><v:paragraph v:horizAlign="1"/><v:tabList/>Stage Completion <tspan
						x="31.42" dy="1.2em" class="st11">Certificate</tspan></text>		</g>
		<g id="shape215-144" v:mID="215" v:groupContext="shape" transform="translate(1352.17,-819.213)">
			<title>Sheet.215</title>
			<desc>Section Completion Certificate</desc>
			<v:textBlock v:margins="rect(4,4,4,4)" v:tabSpace="42.5197"/>
			<v:textRect cx="56.6929" cy="1170" width="113.39" height="41.1024"/>
			<rect x="0" y="1149.45" width="113.386" height="41.1024" class="st17"/>
			<text x="7.62" y="1166.4" class="st18" v:langID="2057"><v:paragraph v:horizAlign="1"/><v:tabList/>Section  Completion <tspan
						x="31.42" dy="1.2em" class="st11">Certificate</tspan></text>		</g>
		<g id="shape216-148" v:mID="216" v:groupContext="shape" transform="translate(374.219,371.339) rotate(-90)">
			<title>Sheet.216</title>
			<desc>Completion Certificate</desc>
			<v:textBlock v:margins="rect(4,4,4,4)" v:tabSpace="42.5197"/>
			<v:textRect cx="83.622" cy="1165.75" width="167.25" height="49.6063"/>
			<rect x="0" y="1140.94" width="167.244" height="49.6063" class="st17"/>
			<text x="28.61" y="1169.35" class="st18" v:langID="2057"><v:paragraph v:horizAlign="1"/><v:tabList/>Completion Certificate</text>		</g>
	</g>
</svg>
