<svg width="0px" height="0px" xmlns:svg="http://www.w3.org/2000/svg" xmlns:xlink="http://www.w3.org/1999/xlink">
  <!--
    This file provides common effects and icons that are added to the Advance SVG graphics.
   -->

  <defs>
    <!-- Icon-close hover effect filter -->
    <filter id="asvg-icon-close-filter">
      <!-- Invert colour -->
      <feColorMatrix in="SourceGraphic" type="matrix" values="-1 0 0 0 1 0 -1 0 0 1 0 0 -1 0 1 0 0 0 1 0"></feColorMatrix>
    </filter>

    <!-- Links hover effect filter -->
    <filter id="asvg-link-filter">
      <!-- Yellow highlight -->
      <feColorMatrix in="SourceGraphic" type="matrix" values="1 0 0 0 0 0 1 0 0 0 0 0 1 -1 0 0 0 0 1 0"></feColorMatrix>
    </filter>

    <!-- Icon-close effect filter -->
    <filter id="asvg-popup-filter">
      <!-- Drop shadow -->
      <feGaussianBlur in="SourceAlpha" stdDeviation="6"></feGaussianBlur>
      <feOffset dx="6" dy="6" result="offsetblur"></feOffset>
      <feFlood flood-color="#202020"></feFlood>
      <feComposite in2="offsetblur" operator="in"></feComposite>
      <feMerge>
        <feMergeNode></feMergeNode>
        <feMergeNode in="SourceGraphic"></feMergeNode>
      </feMerge>
    </filter>

    <!-- Icon-close -->
    <g id="asvg-icon-close" >
      <title>Close popup</title>
      <circle cx="15" cy="15" r="15" style="fill: #FAFAFA; opacity: 0.5;" />
      <path d="M 5,5 L 25,25 M 25,5 L 5,25" style="stroke: #1A1A1A; fill: transparent; stroke-linecap: round; stroke-width: 3;" />
    </g>

    <!-- Icon-popuplink -->
    <linearGradient id="asvg-icon-gradient-popuplink" x1="0%" y1="0%" x2="100%" y2="100%">
      <stop offset="0%" stop-color="rgba(30,30,30,1)"></stop>
      <stop offset="100%" stop-color="rgba(30,30,30,0)"></stop>
    </linearGradient>
    <g id="asvg-icon-popuplink" >
      <animateTransform attributeName="transform" type="scale" additive="sum" from="4 4" to="1 1" begin="0s" dur="1s" repeatCount="1"></animateTransform>
      <path fill="url('#asvg-icon-gradient-popuplink')" style="stroke:none;" d="M 15 4.558594 L 11.441406 4.558594 L 11.441406 1 C 11.441406 0.722656 11.214844 0.5 10.941406 0.5 L 1 0.5 C 0.722656 0.5 0.5 0.722656 0.5 1 L 0.5 10.941406 C 0.5 11.214844 0.722656 11.441406 1 11.441406 L 4.558594 11.441406 L 4.558594 15 C 4.558594 15.277344 4.785156 15.5 5.058594 15.5 L 15 15.5 C 15.277344 15.5 15.5 15.277344 15.5 15 L 15.5 5.058594 C 15.5 4.785156 15.277344 4.558594 15 4.558594 Z M 1.5 1.5 L 10.441406 1.5 L 10.441406 10.441406 L 1.5 10.441406 Z M 14.5 14.5 L 5.558594 14.5 L 5.558594 11.441406 L 10.941406 11.441406 C 11.214844 11.441406 11.441406 11.214844 11.441406 10.941406 L 11.441406 5.558594 L 14.5 5.558594 Z M 14.5 14.5 "/>
    </g>

    <!-- Icon-pagelink -->
    <linearGradient id="asvg-icon-gradient-pagelink" x1="0%" y1="50%" x2="100%" y2="50%">
      <stop offset="0%" stop-color="rgba(30,30,30,0)"></stop>
      <stop offset="100%" stop-color="rgba(30,30,30,1)"></stop>
    </linearGradient>
    <g id="asvg-icon-pagelink" >
      <animateTransform attributeName="transform" type="scale" additive="sum" from="4 4" to="1 1" begin="0s" dur="1s" repeatCount="1"></animateTransform>
      <path fill="url('#asvg-icon-gradient-pagelink')" style="stroke:none;" d="M 14.125 0 L 1.875 0 C 0.839844 0 0 0.839844 0 1.875 L 0 4.375 L 1.25 4.375 L 1.25 1.875 C 1.25 1.53125 1.53125 1.25 1.875 1.25 L 14.125 1.25 C 14.46875 1.25 14.75 1.53125 14.75 1.875 L 14.75 14.125 C 14.75 14.46875 14.46875 14.75 14.125 14.75 L 1.875 14.75 C 1.53125 14.75 1.25 14.46875 1.25 14.125 L 1.25 11.625 L 0 11.625 L 0 14.125 C 0 15.160156 0.839844 16 1.875 16 L 14.125 16 C 15.160156 16 16 15.160156 16 14.125 L 16 1.875 C 16 0.839844 15.160156 0 14.125 0 Z M 14.125 0 "/>
      <path fill="url('#asvg-icon-gradient-pagelink')" style="stroke:none;" d="M 7.5 4.117188 L 6.617188 5 L 8.992188 7.375 L 0 7.375 L 0 8.625 L 8.992188 8.625 L 6.617188 11 L 7.5 11.882812 L 11.382812 8 Z M 7.5 4.117188 "/>
    </g>

    <!-- Icon-hyperlink -->
    <linearGradient id="asvg-icon-gradient-pagelink" x1="0%" y1="50%" x2="100%" y2="50%">
      <stop offset="0%" stop-color="rgba(30,30,30,0)"></stop>
      <stop offset="100%" stop-color="rgba(30,30,30,1)"></stop>
    </linearGradient>
    <g id="asvg-icon-hyperlink" >
      <animateTransform attributeName="transform" type="scale" additive="sum" from="4 4" to="1 1" begin="0s" dur="1s" repeatCount="1"></animateTransform>
      <path fill="url('#asvg-icon-gradient-pagelink')" style="stroke:none;" d="M 14.5 7.5 C 14.222656 7.5 14 7.722656 14 8 L 14 12.5 C 14 13.328125 13.328125 14 12.5 14 L 3.5 14 C 2.671875 14 2 13.328125 2 12.5 L 2 3.5 C 2 2.671875 2.671875 2 3.5 2 L 8 2 C 8.277344 2 8.5 1.777344 8.5 1.5 C 8.5 1.222656 8.277344 1 8 1 L 3.5 1 C 2.121094 1 1 2.121094 1 3.5 L 1 12.5 C 1 13.878906 2.121094 15 3.5 15 L 12.5 15 C 13.878906 15 15 13.878906 15 12.5 L 15 8 C 15 7.722656 14.777344 7.5 14.5 7.5 Z M 14.5 7.5 "/>
      <path fill="url('#asvg-icon-gradient-pagelink')" style="stroke:none;" d="M 11 2 L 13.296875 2 L 7.644531 7.644531 C 7.550781 7.738281 7.496094 7.867188 7.496094 8 C 7.496094 8.132812 7.550781 8.261719 7.644531 8.355469 C 7.738281 8.449219 7.867188 8.503906 8 8.503906 C 8.132812 8.503906 8.261719 8.449219 8.355469 8.355469 L 14 2.710938 L 14 5 C 14 5.277344 14.222656 5.5 14.5 5.5 C 14.777344 5.5 15 5.277344 15 5 L 15 1.5 C 15 1.367188 14.949219 1.238281 14.855469 1.144531 C 14.761719 1.050781 14.632812 1 14.5 1 L 11 1 C 10.722656 1 10.5 1.222656 10.5 1.5 C 10.5 1.777344 10.722656 2 11 2 Z M 11 2 "/>
    </g>

  </defs>
</svg>